<?xml version="1.0" encoding="iso-8859-1"?>
<!-- Generator: Adobe Illustrator 19.0.0, SVG Export Plug-In . SVG Version: 6.00 Build 0)  -->
<svg version="1.1" id="Capa_1" xmlns="http://www.w3.org/2000/svg" xmlns:xlink="http://www.w3.org/1999/xlink" x="0px" y="0px"
	 viewBox="0 0 512 512" style="enable-background:new 0 0 512 512;" xml:space="preserve">
<g>
	<g>
		<path d="M395.636,119.617c0-21.801-17.737-39.539-39.539-39.539c-0.479,0-0.955,0.009-1.43,0.025
			c0.616-2.785,0.93-5.644,0.93-8.533c0-21.801-17.737-39.539-39.539-39.539c-4.379,0-8.692,0.722-12.779,2.119
			C294.803,13.659,274.838,0,251.996,0c-30.025,0-54.563,23.94-55.525,53.736c-7.538-3.723-15.891-5.69-24.553-5.69
			c-30.633,0-55.554,24.921-55.554,55.554c0,17.425,8.07,32.993,20.662,43.187c-5.524,26.653-10.755,76.143,11.018,123.603
			c10.305,22.464,20.087,44.647,26.503,69.01c0.887,3.368,3.928,5.597,7.255,5.597c0.633,0,1.276-0.081,1.917-0.249
			c4.01-1.056,6.404-5.162,5.348-9.172c-6.722-25.524-16.784-48.36-27.376-71.447c-18.696-40.755-15.634-83.537-10.959-109.184
			c6.532,2.707,13.685,4.208,21.186,4.208c12.901,0,25.308-4.498,35.166-12.564c7.39,7.907,17.824,12.564,28.896,12.564
			c13.108,0,24.582-6.38,31.796-16.345c0.16,0.22,0.235,0.437,0.235,0.654v56.231c0,17.386,14.145,31.531,31.531,31.531
			c17.386,0,31.531-14.145,31.531-31.531v-49.072c7.007,5.008,14.389,8.025,22.652,8.469c4.506,27.575,5.858,67.095-11.549,105.04
			c-23.875,52.043-40.276,94.227-34.63,163.397c1.031,12.629,7.202,36.445,12.541,52.172c1.329,3.916,0.724,8.343-1.69,11.71
			c-2.424,3.384-6.187,5.574-10.348,5.574H195.94c-4.162,0-7.94-2.19-10.364-5.574c-2.413-3.367-3.034-7.669-1.705-11.585
			c5.339-15.727,11.479-39.605,12.51-52.235c1.766-21.623,1.393-41.494-1.138-60.684c-0.543-4.111-4.309-7.027-8.425-6.477
			c-4.11,0.543-7.003,4.306-6.461,8.416c2.39,18.122,2.737,36.916,1.059,57.464c-0.924,11.321-6.826,34.022-11.763,48.565
			c-2.905,8.557-1.549,17.931,3.718,25.282c5.279,7.368,13.506,11.844,22.569,11.844h112.109c9.063,0,17.289-4.476,22.569-11.845
			c5.268-7.351,6.623-16.6,3.718-25.158c-4.938-14.542-10.84-37.308-11.763-48.629c-5.35-65.537,10.458-105.992,33.375-155.946
			c18.894-41.186,17.706-83.697,12.904-113.374C384.412,151.729,395.636,136.956,395.636,119.617z M356.098,144.141
			c-8.909,0-17.133-4.85-21.462-12.657c-1.323-2.387-3.837-3.867-6.566-3.867c-2.73,0-5.243,1.48-6.566,3.868
			c-0.855,1.542-2.136,3.002-3.316,4.34c-1.21,1.371-2.128,3.138-2.128,4.967v58.904c0,9.108-7.409,16.516-16.516,16.516
			c-9.107,0-16.516-7.408-16.516-16.516v-58.904c0-1.829-0.417-3.596-1.628-4.967c-3.297-3.737-5.228-8.321-5.821-13.254
			c-0.284-2.37-1.617-4.464-3.694-5.64l-0.288-0.184c-1.175-0.695-2.481-1.045-3.806-1.045c-1.146,0-2.286,0.262-3.343,0.79
			c-2.279,1.137-3.823,3.353-4.106,5.884c-1.385,12.408-11.859,21.765-24.363,21.765c-8.855,0-17.054-4.808-21.397-12.546
			c-1.192-2.124-3.341-3.539-5.764-3.792c-2.417-0.251-4.818,0.684-6.424,2.515c-7.71,8.785-18.816,13.824-30.475,13.824
			c-22.354,0-40.54-18.186-40.54-40.54s18.185-40.541,40.539-40.541c10.925,0,21.172,4.287,28.854,12.073
			c2.432,2.465,6.236,2.947,9.206,1.165c2.97-1.782,4.335-5.363,3.305-8.67c-1.212-3.893-1.827-7.954-1.827-12.075
			c0-22.354,18.186-40.54,40.54-40.54c18.942,0,35.172,12.87,39.468,31.299c0.555,2.376,2.228,4.335,4.489,5.252
			c2.26,0.916,4.827,0.679,6.88-0.642c3.949-2.536,8.522-3.878,13.226-3.878c13.522,0,24.524,11.001,24.524,24.524
			c0,4.701-1.341,9.272-3.879,13.22c-1.721,2.678-1.565,6.151,0.387,8.663c0.207,0.268,0.409,0.538,0.602,0.817
			c2.007,2.922,5.782,4.043,9.061,2.688c2.99-1.237,6.133-1.865,9.344-1.865c13.522,0,24.524,11.001,24.524,24.524
			S369.62,144.141,356.098,144.141z"/>
	</g>
</g>
<g>
</g>
<g>
</g>
<g>
</g>
<g>
</g>
<g>
</g>
<g>
</g>
<g>
</g>
<g>
</g>
<g>
</g>
<g>
</g>
<g>
</g>
<g>
</g>
<g>
</g>
<g>
</g>
<g>
</g>
</svg>
