<?xml version="1.0" encoding="iso-8859-1"?>
<!-- Generator: Adobe Illustrator 19.0.0, SVG Export Plug-In . SVG Version: 6.00 Build 0)  -->
<svg version="1.1" id="Capa_1" xmlns="http://www.w3.org/2000/svg" xmlns:xlink="http://www.w3.org/1999/xlink" x="0px" y="0px"
	 viewBox="0 0 512 512" style="enable-background:new 0 0 512 512;" xml:space="preserve">
<path style="fill:#FCD308;" d="M354.13,127.625H149.862c0,0-25.991,72.07,5.005,139.636c22.399,48.826,39.625,91.158,34.033,159.656
	c-0.993,12.16-7.17,35.74-12.137,50.369c-4.451,13.111,5.332,26.706,19.178,26.706h112.109c13.846,0,23.629-13.595,19.178-26.706
	c-4.967-14.629-11.144-38.209-12.137-50.369c-5.591-68.498,11.634-110.83,34.033-159.656
	C380.121,199.695,354.13,127.625,354.13,127.625z"/>
<path style="fill:#FDC40A;" d="M200.563,477.286c4.967-14.629,11.144-38.209,12.137-50.369
	c5.591-68.498-11.634-110.83-34.033-159.656c-30.996-67.566-5.005-139.636-5.005-139.636h-23.799c0,0-25.991,72.07,5.005,139.636
	c22.399,48.826,39.625,91.158,34.033,159.656c-0.993,12.16-7.17,35.74-12.137,50.369c-4.451,13.111,5.332,26.706,19.178,26.706
	h23.799C205.895,503.992,196.111,490.397,200.563,477.286z"/>
<path style="fill:#F4F4F5;" d="M356.098,87.586c-4.33,0-8.45,0.877-12.216,2.435c-0.275-0.4-0.564-0.79-0.862-1.172
	c3.204-4.986,5.07-10.912,5.07-17.279c0-17.69-14.341-32.031-32.031-32.031c-6.368,0-12.296,1.866-17.283,5.069
	c-4.957-21.259-24.011-37.1-46.78-37.1c-26.536,0-48.047,21.511-48.047,48.047c0,4.983,0.759,9.788,2.167,14.307
	c-8.712-8.83-20.814-14.307-34.198-14.307c-26.536,0-48.047,21.511-48.047,48.047s21.511,48.047,48.047,48.047
	c14.4,0,27.312-6.344,36.118-16.38c5.485,9.773,15.941,16.38,27.944,16.38c16.475,0,30.038-12.44,31.825-28.438
	c0.147,0.086,0.295,0.171,0.443,0.255c0.793,6.602,3.59,12.587,7.77,17.327v58.903c0,13.268,10.755,24.023,24.023,24.023
	c13.268,0,24.023-10.755,24.023-24.023v-58.903c1.53-1.734,2.875-3.632,4.004-5.668c5.463,9.852,15.964,16.523,28.027,16.523
	c17.69,0,32.031-14.341,32.031-32.031S373.788,87.586,356.098,87.586z"/>
<path style="fill:#E9E9EC;" d="M276.02,103.601c0-3.491,0.569-6.848,1.603-9.993c7.344-8.583,18.247-14.031,30.429-14.031
	c9.015,0,17.332,2.981,24.023,8.008c-7.305-9.724-18.932-16.016-32.031-16.016c-18.22,0-33.587,12.175-38.437,28.829
	c-5.844-7.781-15.147-12.814-25.626-12.814c-6.368,0-12.299,1.86-17.285,5.064c-4.958-21.256-24.011-37.095-46.778-37.095
	c-21.995,0-40.525,14.785-46.226,34.955c8.778-11.508,22.627-18.939,38.218-18.939c20.545,0,38.07,12.9,44.939,31.039
	c0.743,1.961,1.355,3.984,1.84,6.058c2.814-1.809,5.931-3.183,9.255-4.042c2.567-0.664,5.255-1.023,8.029-1.023
	c17.69,0,32.031,14.341,32.031,32.031c0,1.961-0.186,3.878-0.524,5.742c2.541-2.744,16.539-5.742,16.539-5.742v64.063
	c0,13.268,10.755,24.023,24.023,24.023c2.807,0,5.497-0.488,8-1.375c-9.325-3.301-16.008-12.192-16.008-22.648v-57.064
	c2.56,0.659,5.243,1.009,8.008,1.009c10.891,0,20.506-5.44,26.294-13.745c-5.186,3.614-11.486,5.738-18.286,5.738
	C290.361,135.632,276.02,121.291,276.02,103.601z"/>
<path d="M395.636,119.617c0-21.801-17.737-39.539-39.539-39.539c-0.478,0-0.955,0.009-1.43,0.025c0.616-2.785,0.93-5.645,0.93-8.533
	c0-21.801-17.737-39.539-39.539-39.539c-4.379,0-8.691,0.722-12.779,2.119C294.803,13.659,274.838,0,251.996,0
	c-30.025,0-54.563,23.94-55.525,53.736c-7.538-3.723-15.891-5.69-24.553-5.69c-30.633,0-55.554,24.921-55.554,55.554
	c0,17.425,8.07,32.993,20.662,43.187c-5.524,26.653-10.755,76.143,11.018,123.603c10.305,22.464,20.087,44.647,26.503,69.01
	c0.887,3.368,3.928,5.597,7.255,5.597c0.633,0,1.276-0.081,1.917-0.249c4.01-1.056,6.404-5.162,5.348-9.172
	c-6.722-25.524-16.784-48.36-27.376-71.447c-18.696-40.755-15.634-83.537-10.959-109.184c6.532,2.707,13.685,4.208,21.186,4.208
	c12.901,0,25.308-4.498,35.166-12.564c7.39,7.907,17.824,12.564,28.896,12.564c13.108,0,24.582-6.38,31.796-16.345
	c0.16,0.22,0.235,0.437,0.235,0.654v56.231c0,17.386,14.145,31.531,31.531,31.531s31.531-14.145,31.531-31.531v-49.072
	c7.007,5.008,14.389,8.025,22.652,8.469c4.506,27.575,5.858,67.095-11.549,105.04c-23.875,52.043-40.276,94.227-34.63,163.397
	c1.031,12.629,7.202,36.445,12.541,52.172c1.329,3.916,0.724,8.343-1.69,11.71c-2.424,3.384-6.187,5.574-10.348,5.574H195.94
	c-4.162,0-7.94-2.19-10.364-5.574c-2.413-3.367-3.034-7.669-1.705-11.585c5.339-15.727,11.479-39.605,12.51-52.235
	c1.766-21.623,1.393-41.494-1.138-60.684c-0.543-4.111-4.309-7.027-8.425-6.477c-4.11,0.543-7.003,4.306-6.461,8.416
	c2.39,18.122,2.737,36.916,1.059,57.464c-0.924,11.321-6.826,34.022-11.763,48.565c-2.905,8.557-1.55,17.931,3.718,25.282
	c5.279,7.368,13.506,11.844,22.569,11.844h112.109c9.063,0,17.289-4.476,22.569-11.845c5.268-7.351,6.623-16.6,3.718-25.158
	c-4.938-14.542-10.84-37.308-11.763-48.629c-5.35-65.537,10.458-105.993,33.375-155.946c18.894-41.186,17.706-83.697,12.904-113.374
	C384.412,151.729,395.636,136.956,395.636,119.617z M356.098,144.141c-8.909,0-17.133-4.85-21.462-12.657
	c-1.323-2.387-3.837-3.867-6.566-3.867c-2.73,0-5.243,1.48-6.566,3.868c-0.855,1.542-2.136,3.002-3.316,4.34
	c-1.21,1.371-2.128,3.138-2.128,4.967v58.904c0,9.108-7.409,16.516-16.516,16.516c-9.107,0-16.516-7.408-16.516-16.516v-58.904
	c0-1.829-0.417-3.596-1.628-4.967c-3.297-3.737-5.228-8.321-5.821-13.254c-0.284-2.37-1.617-4.464-3.694-5.64l-0.288-0.184
	c-1.175-0.695-2.481-1.045-3.806-1.045c-1.146,0-2.286,0.262-3.343,0.79c-2.279,1.137-3.823,3.353-4.106,5.884
	c-1.385,12.408-11.859,21.765-24.363,21.765c-8.855,0-17.054-4.808-21.397-12.546c-1.192-2.124-3.341-3.538-5.764-3.792
	c-2.417-0.251-4.818,0.684-6.424,2.515c-7.71,8.785-18.816,13.824-30.475,13.824c-22.354,0-40.54-18.186-40.54-40.54
	s18.185-40.541,40.539-40.541c10.925,0,21.172,4.287,28.854,12.073c2.432,2.465,6.236,2.947,9.206,1.165
	c2.97-1.782,4.335-5.363,3.305-8.67c-1.212-3.893-1.827-7.954-1.827-12.075c0-22.354,18.186-40.54,40.54-40.54
	c18.943,0,35.172,12.87,39.468,31.299c0.555,2.376,2.228,4.335,4.489,5.252c2.26,0.916,4.827,0.679,6.88-0.642
	c3.949-2.536,8.522-3.878,13.226-3.878c13.522,0,24.524,11.001,24.524,24.524c0,4.701-1.341,9.272-3.879,13.22
	c-1.721,2.678-1.566,6.151,0.387,8.663c0.207,0.268,0.409,0.538,0.602,0.817c2.007,2.922,5.782,4.043,9.061,2.688
	c2.99-1.237,6.133-1.865,9.344-1.865c13.522,0,24.524,11.001,24.524,24.524S369.62,144.141,356.098,144.141z"/>
<g>
</g>
<g>
</g>
<g>
</g>
<g>
</g>
<g>
</g>
<g>
</g>
<g>
</g>
<g>
</g>
<g>
</g>
<g>
</g>
<g>
</g>
<g>
</g>
<g>
</g>
<g>
</g>
<g>
</g>
</svg>
