<svg width="340" height="360" viewBox="0 0 340 360" xmlns="http://www.w3.org/2000/svg"><g fill="#205081" fill-rule="evenodd"><g transform="rotate(-17 1066.03 -507.64)"><path d="M141.556 14.856c-3.225 0-6.484.796-8.692 1.623V4.395c0-.608-.494-1.1-1.1-1.1h-6.514c-.607 0-1.095.492-1.095 1.1v41.612c0 .528.38.988.9 1.08 4.02.734 8.76.99 11.605.99 12.232 0 14.734-5.2 14.734-13.01v-9.11c0-7.37-3.31-11.102-9.838-11.102zm-4.52 25.658c-1.648 0-3.014-.063-4.172-.2v-16.28c1.794-.803 4.317-1.613 6.34-1.613 2.468 0 3.475.968 3.475 3.347v9.55c0 3.446-.873 5.197-5.643 5.197zM181.355 15.493h-6.505c-.607 0-1.1.494-1.1 1.093v20.612c-2.347 1.19-5.65 2.423-7.615 2.423-1.466 0-2.007-.54-2.007-2.008V16.586c0-.6-.5-1.093-1.116-1.093h-6.497c-.616 0-1.103.494-1.103 1.093v21.857c0 6.392 2.516 9.636 7.472 9.636 3.45 0 8.15-1.187 12.116-3.052l.48 1.624c.142.47.565.792 1.058.792l4.817-.002c.608 0 1.102-.493 1.102-1.1V16.587c0-.6-.494-1.094-1.102-1.094zM207.56 40.707c-.043-.306-.222-.576-.466-.75-.256-.17-.572-.23-.87-.16-1.867.424-3.826.654-5.664.654-4.125 0-5.32-1.05-5.32-4.682v-8.602c0-3.635 1.195-4.686 5.32-4.686.98 0 3.425.14 5.663.654.3.068.615.012.87-.165.253-.17.43-.442.466-.75l.773-5.15c.077-.542-.243-1.058-.774-1.214-2.51-.738-5.45-1-7.186-1-9.836 0-13.847 3.582-13.847 12.375v8.473c0 8.79 4.01 12.375 13.847 12.375 2.387 0 5.14-.383 7.185-.998.53-.157.85-.678.773-1.218l-.774-5.155zM252.4 14.856c-8.73 0-13.338 4.348-13.338 12.567v8.217c0 8.484 4.323 12.438 13.597 12.438 3.773 0 7.798-.662 11.036-1.808.515-.185.823-.726.715-1.266l-.964-4.656c-.065-.3-.25-.563-.508-.717-.264-.16-.58-.202-.87-.117-2.996.844-5.835 1.258-8.71 1.258-4.74 0-5.584-1.535-5.584-4.75v-1.125h16.16c.613 0 1.1-.487 1.1-1.103v-5.99c0-8.834-4.012-12.946-12.634-12.946zm-4.626 12.858v-1.056c0-3.066 1.497-4.495 4.692-4.495 3.532 0 4.237 1.723 4.237 4.495v1.056h-8.93zM95.845 15.48H89.34c-.61 0-1.104.494-1.104 1.1v29.75c0 .61.495 1.1 1.103 1.1h6.504c.622 0 1.108-.49 1.108-1.1V16.58c0-.606-.485-1.1-1.107-1.1zM95.845 3.292H89.34c-.61 0-1.104.5-1.104 1.104V10c0 .617.495 1.105 1.103 1.105h6.504c.622 0 1.108-.488 1.108-1.104V4.397c0-.604-.485-1.104-1.107-1.104zM79.458 24.747c2.697-1.483 3.867-3.562 3.867-6.76v-4.374c0-6.407-3.844-9.517-11.738-9.517H55.524c-.602 0-1.095.492-1.095 1.1V46.33c0 .61.492 1.1 1.094 1.1H72.73c7.665 0 12.062-3.72 12.062-10.212V32.7c0-3.873-1.966-6.766-5.334-7.953zM63.394 11.66h7.235c3.274 0 3.732 1.43 3.732 2.96v3.747c0 2.438-1.138 3.48-3.797 3.48H69c-.616 0-1.11.495-1.11 1.103v5.17c0 .61.494 1.104 1.11 1.104h2.83c2.84 0 3.99 1.098 3.99 3.793v3.18c0 2.743-1.18 3.668-4.69 3.668h-7.735V11.66zM120.287 41.108c-.043-.31-.214-.583-.47-.758-.26-.17-.58-.228-.88-.15-1.152.286-2.253.442-3.103.442-1.61 0-2.324-.7-2.324-2.264V22.614h6.32c.608 0 1.1-.492 1.1-1.102v-4.92c0-.605-.492-1.1-1.1-1.1h-6.32v-7.58c0-.32-.143-.62-.38-.828-.24-.212-.564-.308-.88-.262l-6.505.906c-.543.078-.948.544-.948 1.094v6.67h-3.548c-.608 0-1.103.494-1.103 1.1v4.92c0 .61.495 1.102 1.102 1.102h3.547V39.4c0 5.76 3.023 8.683 9 8.683 1.7 0 4.59-.394 6.476-1.048.508-.175.808-.678.73-1.208l-.716-4.72zM286.494 41.106c-.042-.31-.22-.582-.48-.758-.256-.17-.58-.228-.87-.15-1.16.286-2.253.444-3.11.444-1.603 0-2.33-.702-2.33-2.266V22.612h6.326c.614 0 1.1-.495 1.1-1.1v-4.92c0-.605-.486-1.1-1.1-1.1h-6.327v-7.58c0-.322-.13-.623-.373-.83-.243-.21-.564-.306-.88-.26l-6.505.906c-.543.077-.952.542-.952 1.088v6.676h-3.544c-.603 0-1.102.494-1.102 1.1v4.92c0 .605.5 1.1 1.1 1.1h3.545V39.4c0 5.757 3.032 8.68 9.002 8.68 1.71 0 4.59-.392 6.477-1.046.5-.176.814-.677.736-1.208l-.714-4.72zM238.05 45.59l-8.7-14.36 8.393-14.143c.202-.34.206-.764.01-1.107-.196-.344-.56-.557-.957-.557h-7.186c-.394 0-.758.21-.954.55l-7.984 13.842V4.403c0-.61-.493-1.102-1.1-1.102h-6.507c-.608 0-1.1.494-1.1 1.103V46.33c0 .608.492 1.1 1.1 1.1h6.506c.61 0 1.102-.492 1.102-1.1V32.608l8.495 14.215c.2.332.558.536.946.536h7.06c.608 0 1.1-.494 1.1-1.102.002-.25-.08-.482-.222-.667zM21.405.337C9.63.337.015 3.502.015 7.433c0 1.035 2.57 15.88 3.587 21.766.457 2.64 7.28 6.51 17.798 6.51l.01-.032v.03c10.518 0 17.34-3.87 17.797-6.51 1.02-5.886 3.586-20.73 3.586-21.765 0-3.93-9.613-7.096-21.388-7.096zm0 30.604c-3.755 0-6.8-3.044-6.8-6.798 0-3.756 3.045-6.8 6.8-6.8s6.8 3.044 6.8 6.8c0 3.754-3.045 6.8-6.8 6.8zM21.4 9.627C13.837 9.614 7.707 8.3 7.71 6.69c.003-1.61 6.138-2.905 13.703-2.893 7.566.012 13.697 1.326 13.694 2.937-.003 1.61-6.138 2.904-13.703 2.892z"/><path d="M36.778 35.1c-.325 0-.586.23-.586.23s-5.267 4.17-14.786 4.17c-9.52 0-14.787-4.17-14.787-4.17s-.262-.23-.587-.23c-.388 0-.756.26-.756.835 0 .06.006.122.017.18.817 4.377 1.414 7.482 1.52 7.954.713 3.217 7.01 5.646 14.59 5.646h.002c7.582 0 13.878-2.43 14.592-5.647.105-.474.702-3.578 1.52-7.954.01-.06.017-.12.017-.18 0-.577-.37-.837-.757-.837z"/><ellipse cx="21.399" cy="24.14" rx="3.407" ry="3.407"/></g><g transform="rotate(-17 896.03 629.857)"><path d="M141.556 14.856c-3.225 0-6.484.796-8.692 1.623V4.395c0-.608-.494-1.1-1.1-1.1h-6.514c-.607 0-1.095.492-1.095 1.1v41.612c0 .528.38.988.9 1.08 4.02.734 8.76.99 11.605.99 12.232 0 14.734-5.2 14.734-13.01v-9.11c0-7.37-3.31-11.102-9.838-11.102zm-4.52 25.658c-1.648 0-3.014-.063-4.172-.2v-16.28c1.794-.803 4.317-1.613 6.34-1.613 2.468 0 3.475.968 3.475 3.347v9.55c0 3.446-.873 5.197-5.643 5.197zM181.355 15.493h-6.505c-.607 0-1.1.494-1.1 1.093v20.612c-2.347 1.19-5.65 2.423-7.615 2.423-1.466 0-2.007-.54-2.007-2.008V16.586c0-.6-.5-1.093-1.116-1.093h-6.497c-.616 0-1.103.494-1.103 1.093v21.857c0 6.392 2.516 9.636 7.472 9.636 3.45 0 8.15-1.187 12.116-3.052l.48 1.624c.142.47.565.792 1.058.792l4.817-.002c.608 0 1.102-.493 1.102-1.1V16.587c0-.6-.494-1.094-1.102-1.094zM207.56 40.707c-.043-.306-.222-.576-.466-.75-.256-.17-.572-.23-.87-.16-1.867.424-3.826.654-5.664.654-4.125 0-5.32-1.05-5.32-4.682v-8.602c0-3.635 1.195-4.686 5.32-4.686.98 0 3.425.14 5.663.654.3.068.615.012.87-.165.253-.17.43-.442.466-.75l.773-5.15c.077-.542-.243-1.058-.774-1.214-2.51-.738-5.45-1-7.186-1-9.836 0-13.847 3.582-13.847 12.375v8.473c0 8.79 4.01 12.375 13.847 12.375 2.387 0 5.14-.383 7.185-.998.53-.157.85-.678.773-1.218l-.774-5.155zM252.4 14.856c-8.73 0-13.338 4.348-13.338 12.567v8.217c0 8.484 4.323 12.438 13.597 12.438 3.773 0 7.798-.662 11.036-1.808.515-.185.823-.726.715-1.266l-.964-4.656c-.065-.3-.25-.563-.508-.717-.264-.16-.58-.202-.87-.117-2.996.844-5.835 1.258-8.71 1.258-4.74 0-5.584-1.535-5.584-4.75v-1.125h16.16c.613 0 1.1-.487 1.1-1.103v-5.99c0-8.834-4.012-12.946-12.634-12.946zm-4.626 12.858v-1.056c0-3.066 1.497-4.495 4.692-4.495 3.532 0 4.237 1.723 4.237 4.495v1.056h-8.93zM95.845 15.48H89.34c-.61 0-1.104.494-1.104 1.1v29.75c0 .61.495 1.1 1.103 1.1h6.504c.622 0 1.108-.49 1.108-1.1V16.58c0-.606-.485-1.1-1.107-1.1zM95.845 3.292H89.34c-.61 0-1.104.5-1.104 1.104V10c0 .617.495 1.105 1.103 1.105h6.504c.622 0 1.108-.488 1.108-1.104V4.397c0-.604-.485-1.104-1.107-1.104zM79.458 24.747c2.697-1.483 3.867-3.562 3.867-6.76v-4.374c0-6.407-3.844-9.517-11.738-9.517H55.524c-.602 0-1.095.492-1.095 1.1V46.33c0 .61.492 1.1 1.094 1.1H72.73c7.665 0 12.062-3.72 12.062-10.212V32.7c0-3.873-1.966-6.766-5.334-7.953zM63.394 11.66h7.235c3.274 0 3.732 1.43 3.732 2.96v3.747c0 2.438-1.138 3.48-3.797 3.48H69c-.616 0-1.11.495-1.11 1.103v5.17c0 .61.494 1.104 1.11 1.104h2.83c2.84 0 3.99 1.098 3.99 3.793v3.18c0 2.743-1.18 3.668-4.69 3.668h-7.735V11.66zM120.287 41.108c-.043-.31-.214-.583-.47-.758-.26-.17-.58-.228-.88-.15-1.152.286-2.253.442-3.103.442-1.61 0-2.324-.7-2.324-2.264V22.614h6.32c.608 0 1.1-.492 1.1-1.102v-4.92c0-.605-.492-1.1-1.1-1.1h-6.32v-7.58c0-.32-.143-.62-.38-.828-.24-.212-.564-.308-.88-.262l-6.505.906c-.543.078-.948.544-.948 1.094v6.67h-3.548c-.608 0-1.103.494-1.103 1.1v4.92c0 .61.495 1.102 1.102 1.102h3.547V39.4c0 5.76 3.023 8.683 9 8.683 1.7 0 4.59-.394 6.476-1.048.508-.175.808-.678.73-1.208l-.716-4.72zM286.494 41.106c-.042-.31-.22-.582-.48-.758-.256-.17-.58-.228-.87-.15-1.16.286-2.253.444-3.11.444-1.603 0-2.33-.702-2.33-2.266V22.612h6.326c.614 0 1.1-.495 1.1-1.1v-4.92c0-.605-.486-1.1-1.1-1.1h-6.327v-7.58c0-.322-.13-.623-.373-.83-.243-.21-.564-.306-.88-.26l-6.505.906c-.543.077-.952.542-.952 1.088v6.676h-3.544c-.603 0-1.102.494-1.102 1.1v4.92c0 .605.5 1.1 1.1 1.1h3.545V39.4c0 5.757 3.032 8.68 9.002 8.68 1.71 0 4.59-.392 6.477-1.046.5-.176.814-.677.736-1.208l-.714-4.72zM238.05 45.59l-8.7-14.36 8.393-14.143c.202-.34.206-.764.01-1.107-.196-.344-.56-.557-.957-.557h-7.186c-.394 0-.758.21-.954.55l-7.984 13.842V4.403c0-.61-.493-1.102-1.1-1.102h-6.507c-.608 0-1.1.494-1.1 1.103V46.33c0 .608.492 1.1 1.1 1.1h6.506c.61 0 1.102-.492 1.102-1.1V32.608l8.495 14.215c.2.332.558.536.946.536h7.06c.608 0 1.1-.494 1.1-1.102.002-.25-.08-.482-.222-.667zM21.405.337C9.63.337.015 3.502.015 7.433c0 1.035 2.57 15.88 3.587 21.766.457 2.64 7.28 6.51 17.798 6.51l.01-.032v.03c10.518 0 17.34-3.87 17.797-6.51 1.02-5.886 3.586-20.73 3.586-21.765 0-3.93-9.613-7.096-21.388-7.096zm0 30.604c-3.755 0-6.8-3.044-6.8-6.798 0-3.756 3.045-6.8 6.8-6.8s6.8 3.044 6.8 6.8c0 3.754-3.045 6.8-6.8 6.8zM21.4 9.627C13.837 9.614 7.707 8.3 7.71 6.69c.003-1.61 6.138-2.905 13.703-2.893 7.566.012 13.697 1.326 13.694 2.937-.003 1.61-6.138 2.904-13.703 2.892z"/><path d="M36.778 35.1c-.325 0-.586.23-.586.23s-5.267 4.17-14.786 4.17c-9.52 0-14.787-4.17-14.787-4.17s-.262-.23-.587-.23c-.388 0-.756.26-.756.835 0 .06.006.122.017.18.817 4.377 1.414 7.482 1.52 7.954.713 3.217 7.01 5.646 14.59 5.646h.002c7.582 0 13.878-2.43 14.592-5.647.105-.474.702-3.578 1.52-7.954.01-.06.017-.12.017-.18 0-.577-.37-.837-.757-.837z"/><ellipse cx="21.399" cy="24.14" rx="3.407" ry="3.407"/></g><g transform="rotate(-17 378.825 -28.892)"><path d="M141.556 14.856c-3.225 0-6.484.796-8.692 1.623V4.395c0-.608-.494-1.1-1.1-1.1h-6.514c-.607 0-1.095.492-1.095 1.1v41.612c0 .528.38.988.9 1.08 4.02.734 8.76.99 11.605.99 12.232 0 14.734-5.2 14.734-13.01v-9.11c0-7.37-3.31-11.102-9.838-11.102zm-4.52 25.658c-1.648 0-3.014-.063-4.172-.2v-16.28c1.794-.803 4.317-1.613 6.34-1.613 2.468 0 3.475.968 3.475 3.347v9.55c0 3.446-.873 5.197-5.643 5.197zM181.355 15.493h-6.505c-.607 0-1.1.494-1.1 1.093v20.612c-2.347 1.19-5.65 2.423-7.615 2.423-1.466 0-2.007-.54-2.007-2.008V16.586c0-.6-.5-1.093-1.116-1.093h-6.497c-.616 0-1.103.494-1.103 1.093v21.857c0 6.392 2.516 9.636 7.472 9.636 3.45 0 8.15-1.187 12.116-3.052l.48 1.624c.142.47.565.792 1.058.792l4.817-.002c.608 0 1.102-.493 1.102-1.1V16.587c0-.6-.494-1.094-1.102-1.094zM207.56 40.707c-.043-.306-.222-.576-.466-.75-.256-.17-.572-.23-.87-.16-1.867.424-3.826.654-5.664.654-4.125 0-5.32-1.05-5.32-4.682v-8.602c0-3.635 1.195-4.686 5.32-4.686.98 0 3.425.14 5.663.654.3.068.615.012.87-.165.253-.17.43-.442.466-.75l.773-5.15c.077-.542-.243-1.058-.774-1.214-2.51-.738-5.45-1-7.186-1-9.836 0-13.847 3.582-13.847 12.375v8.473c0 8.79 4.01 12.375 13.847 12.375 2.387 0 5.14-.383 7.185-.998.53-.157.85-.678.773-1.218l-.774-5.155zM252.4 14.856c-8.73 0-13.338 4.348-13.338 12.567v8.217c0 8.484 4.323 12.438 13.597 12.438 3.773 0 7.798-.662 11.036-1.808.515-.185.823-.726.715-1.266l-.964-4.656c-.065-.3-.25-.563-.508-.717-.264-.16-.58-.202-.87-.117-2.996.844-5.835 1.258-8.71 1.258-4.74 0-5.584-1.535-5.584-4.75v-1.125h16.16c.613 0 1.1-.487 1.1-1.103v-5.99c0-8.834-4.012-12.946-12.634-12.946zm-4.626 12.858v-1.056c0-3.066 1.497-4.495 4.692-4.495 3.532 0 4.237 1.723 4.237 4.495v1.056h-8.93zM95.845 15.48H89.34c-.61 0-1.104.494-1.104 1.1v29.75c0 .61.495 1.1 1.103 1.1h6.504c.622 0 1.108-.49 1.108-1.1V16.58c0-.606-.485-1.1-1.107-1.1zM95.845 3.292H89.34c-.61 0-1.104.5-1.104 1.104V10c0 .617.495 1.105 1.103 1.105h6.504c.622 0 1.108-.488 1.108-1.104V4.397c0-.604-.485-1.104-1.107-1.104zM79.458 24.747c2.697-1.483 3.867-3.562 3.867-6.76v-4.374c0-6.407-3.844-9.517-11.738-9.517H55.524c-.602 0-1.095.492-1.095 1.1V46.33c0 .61.492 1.1 1.094 1.1H72.73c7.665 0 12.062-3.72 12.062-10.212V32.7c0-3.873-1.966-6.766-5.334-7.953zM63.394 11.66h7.235c3.274 0 3.732 1.43 3.732 2.96v3.747c0 2.438-1.138 3.48-3.797 3.48H69c-.616 0-1.11.495-1.11 1.103v5.17c0 .61.494 1.104 1.11 1.104h2.83c2.84 0 3.99 1.098 3.99 3.793v3.18c0 2.743-1.18 3.668-4.69 3.668h-7.735V11.66zM120.287 41.108c-.043-.31-.214-.583-.47-.758-.26-.17-.58-.228-.88-.15-1.152.286-2.253.442-3.103.442-1.61 0-2.324-.7-2.324-2.264V22.614h6.32c.608 0 1.1-.492 1.1-1.102v-4.92c0-.605-.492-1.1-1.1-1.1h-6.32v-7.58c0-.32-.143-.62-.38-.828-.24-.212-.564-.308-.88-.262l-6.505.906c-.543.078-.948.544-.948 1.094v6.67h-3.548c-.608 0-1.103.494-1.103 1.1v4.92c0 .61.495 1.102 1.102 1.102h3.547V39.4c0 5.76 3.023 8.683 9 8.683 1.7 0 4.59-.394 6.476-1.048.508-.175.808-.678.73-1.208l-.716-4.72zM286.494 41.106c-.042-.31-.22-.582-.48-.758-.256-.17-.58-.228-.87-.15-1.16.286-2.253.444-3.11.444-1.603 0-2.33-.702-2.33-2.266V22.612h6.326c.614 0 1.1-.495 1.1-1.1v-4.92c0-.605-.486-1.1-1.1-1.1h-6.327v-7.58c0-.322-.13-.623-.373-.83-.243-.21-.564-.306-.88-.26l-6.505.906c-.543.077-.952.542-.952 1.088v6.676h-3.544c-.603 0-1.102.494-1.102 1.1v4.92c0 .605.5 1.1 1.1 1.1h3.545V39.4c0 5.757 3.032 8.68 9.002 8.68 1.71 0 4.59-.392 6.477-1.046.5-.176.814-.677.736-1.208l-.714-4.72zM238.05 45.59l-8.7-14.36 8.393-14.143c.202-.34.206-.764.01-1.107-.196-.344-.56-.557-.957-.557h-7.186c-.394 0-.758.21-.954.55l-7.984 13.842V4.403c0-.61-.493-1.102-1.1-1.102h-6.507c-.608 0-1.1.494-1.1 1.103V46.33c0 .608.492 1.1 1.1 1.1h6.506c.61 0 1.102-.492 1.102-1.1V32.608l8.495 14.215c.2.332.558.536.946.536h7.06c.608 0 1.1-.494 1.1-1.102.002-.25-.08-.482-.222-.667zM21.405.337C9.63.337.015 3.502.015 7.433c0 1.035 2.57 15.88 3.587 21.766.457 2.64 7.28 6.51 17.798 6.51l.01-.032v.03c10.518 0 17.34-3.87 17.797-6.51 1.02-5.886 3.586-20.73 3.586-21.765 0-3.93-9.613-7.096-21.388-7.096zm0 30.604c-3.755 0-6.8-3.044-6.8-6.798 0-3.756 3.045-6.8 6.8-6.8s6.8 3.044 6.8 6.8c0 3.754-3.045 6.8-6.8 6.8zM21.4 9.627C13.837 9.614 7.707 8.3 7.71 6.69c.003-1.61 6.138-2.905 13.703-2.893 7.566.012 13.697 1.326 13.694 2.937-.003 1.61-6.138 2.904-13.703 2.892z"/><path d="M36.778 35.1c-.325 0-.586.23-.586.23s-5.267 4.17-14.786 4.17c-9.52 0-14.787-4.17-14.787-4.17s-.262-.23-.587-.23c-.388 0-.756.26-.756.835 0 .06.006.122.017.18.817 4.377 1.414 7.482 1.52 7.954.713 3.217 7.01 5.646 14.59 5.646h.002c7.582 0 13.878-2.43 14.592-5.647.105-.474.702-3.578 1.52-7.954.01-.06.017-.12.017-.18 0-.577-.37-.837-.757-.837z"/><ellipse cx="21.399" cy="24.14" rx="3.407" ry="3.407"/></g></g></svg>