<svg width="320" height="200" viewBox="0 0 320 200" xmlns="http://www.w3.org/2000/svg"><g fill="#3CBC8D" fill-rule="evenodd"><path d="M54.482 66.985l-17.177-6.252c-.637-.232-1.34.096-1.573.733L10.36 131.18l2.304.84c.344-.946 1.388-1.433 2.333-1.09.944.345 1.43 1.39 1.087 2.333l2.306.84c.344-.945 1.388-1.432 2.333-1.088.944.344 1.43 1.388 1.087 2.333l2.306.84c.344-.946 1.388-1.433 2.333-1.09.943.345 1.43 1.39 1.086 2.334l2.306.84 25.374-69.714c.232-.637-.097-1.34-.734-1.573zm-.84 2.306l-.732-1.572-25.374 69.714c-.56 1.537 1.747 2.376 2.306.84.807-2.22-.336-4.67-2.554-5.48-2.218-.806-4.67.338-5.478 2.556-.56 1.537 1.747 2.376 2.306.84.808-2.22-.336-4.67-2.554-5.48-2.218-.806-4.67.338-5.478 2.555-.56 1.538 1.747 2.377 2.306.84.808-2.218-.336-4.67-2.554-5.478-2.218-.807-4.67.336-5.477 2.554-.56 1.537 1.745 2.376 2.304.84l25.374-69.715-1.573.734 17.178 6.25z"/><path d="M38.57 56.076c.014-.043.06-.064.104-.048L55.25 62.06c.045.017.067.064.05.107l-1.656 4.554c-.016.044-.062.066-.106.05L36.96 60.736c-.043-.016-.065-.063-.05-.105l1.66-4.554zm-2.307-.84l-1.658 4.556c-.48 1.316.2 2.77 1.516 3.25L52.7 69.076c1.318.48 2.772-.2 3.25-1.515l1.66-4.554c.478-1.316-.2-2.77-1.517-3.25l-16.576-6.034c-1.318-.48-2.772.2-3.25 1.515zM13.674 148.33c.14-.38.613-.89.897-.986.26-.09.483-.263.633-.494-.134.207-.31.337-.466.373l-.028.005c.012 0 .034 0 .066.003.11.014.264.052.46.124.197.07.34.14.432.202.026.018.044.03.054.04-.002 0-.01-.01-.02-.022-.095-.127-.146-.34-.116-.584-.03.247.014.497.13.718.173.333.22 1.043.09 1.4l-1.658 4.553c-.016.044-.063.066-.106.05l-1.977-.72c-.043-.015-.064-.062-.05-.104l1.66-4.555zm-2.306-.838l-1.658 4.554c-.48 1.316.2 2.77 1.516 3.25l1.977.72c1.316.48 2.772-.2 3.25-1.515l1.658-4.554c.366-1.002.274-2.428-.22-3.372l-1.086.567 1.217.152c.047-.37-.057-.797-.357-1.195-.327-.434-.852-.782-1.587-1.05-.736-.267-1.36-.338-1.89-.215-.486.112-.84.372-1.043.685l1.03.666-.398-1.16c-1.025.35-2.027 1.424-2.407 2.47z"/><path d="M44.285 45.14c.634-1.74 2.558-2.637 4.3-2.003l8.568 3.12c1.74.632 2.638 2.557 2.004 4.297l-3.8 10.44 1.573-.733-17.178-6.252.733 1.573 3.8-10.44zm-2.306-.838l-3.8 10.44c-.232.636.096 1.34.733 1.572l17.178 6.252c.637.232 1.342-.096 1.573-.733l3.8-10.44c1.097-3.014-.457-6.346-3.47-7.443l-8.57-3.12c-3.014-1.096-6.347.458-7.444 3.472zM10.268 131.768l1.312 14.793c.085.954 1.18 1.448 1.95.88l.023-.015c.037-.024.082-.053.133-.083.153-.09.322-.175.5-.244.444-.172.836-.21 1.13-.104.294.107.57.39.8.806.09.168.166.34.225.508.02.057.037.107.05.15l.007.026c.22.91 1.34 1.248 2.028.61l11.077-10.283c.497-.46.526-1.236.065-1.733-.46-.496-1.238-.525-1.734-.064l-11.078 10.283 2.027.61c-.023-.096-.064-.238-.127-.415-.1-.284-.228-.578-.388-.87-.49-.893-1.174-1.59-2.112-1.932-.937-.34-1.91-.246-2.86.123-.31.122-.595.265-.856.418-.162.096-.286.178-.365.237l1.95.88-1.313-14.794c-.06-.674-.656-1.172-1.33-1.112-.676.06-1.174.655-1.114 1.33zM73.624 53.987l7.873 2.866 1.153.42.84-2.306-1.153-.42-7.873-2.866-1.153-.418-.84 2.306M68.322 68.555l7.873 2.866 1.153.42.84-2.305-1.154-.42-7.873-2.866-1.152-.42-.84 2.306M71.113 60.888l4.294 1.563 1.153.42.84-2.305-1.154-.42-4.294-1.563-1.153-.42-.84 2.306M63.3 82.357l7.872 2.865 1.153.42.84-2.306-1.154-.42-7.872-2.865-1.153-.42-.84 2.307M65.81 75.456l4.295 1.563 1.153.42.84-2.307-1.154-.42-4.294-1.563-1.153-.42-.84 2.306M57.996 96.925l7.873 2.865 1.152.42.84-2.306-1.153-.42-7.875-2.865-1.152-.42-.84 2.305M60.508 90.024l4.294 1.563 1.153.42.84-2.306-1.153-.42-4.295-1.562-1.153-.42-.84 2.306M52.694 111.493l7.873 2.866 1.153.418.84-2.306-1.154-.42-7.873-2.865-1.153-.42-.84 2.306M55.485 103.826l4.294 1.563 1.152.418.84-2.306-1.154-.42-4.294-1.562-1.153-.42-.838 2.306M47.67 125.294l7.874 2.866 1.153.42.84-2.306-1.154-.42-7.873-2.866-1.153-.42-.84 2.307M50.182 118.394l4.295 1.563 1.153.42.84-2.307-1.154-.42-4.295-1.562-1.15-.42-.84 2.306M42.368 139.862l7.873 2.866 1.154.42.84-2.306-1.153-.42-7.873-2.865-1.152-.42-.84 2.306M44.88 132.962l4.294 1.563 1.153.42.84-2.306-1.153-.42-4.295-1.564-1.154-.42-.84 2.306"/><path d="M78.794 43.37L40.35 148.995c-.402 1.104.167 2.323 1.27 2.725l21.598 7.86c1.103.402 2.323-.167 2.725-1.27l38.444-105.625c.402-1.104-.167-2.323-1.27-2.725L81.518 42.1c-1.104-.402-2.324.167-2.726 1.27zm-2.306-.84c.865-2.376 3.493-3.602 5.87-2.737l21.598 7.86c2.376.866 3.602 3.493 2.737 5.872L68.248 159.15c-.865 2.376-3.493 3.602-5.87 2.737l-21.597-7.86c-2.376-.866-3.6-3.493-2.736-5.872L76.488 42.53z"/><g><path d="M214.482-33.015l-17.177-6.252c-.637-.232-1.34.096-1.573.733L170.36 31.18l2.304.84c.344-.946 1.388-1.433 2.333-1.09.944.345 1.43 1.39 1.087 2.333l2.306.84c.344-.945 1.388-1.432 2.333-1.088.944.344 1.43 1.388 1.087 2.333l2.306.84c.344-.946 1.388-1.433 2.333-1.09.943.345 1.43 1.39 1.086 2.334l2.306.84 25.374-69.714c.232-.637-.097-1.34-.734-1.573zm-.84 2.306l-.732-1.572-25.374 69.714c-.56 1.537 1.747 2.376 2.306.84.807-2.22-.336-4.67-2.554-5.48-2.218-.806-4.67.338-5.478 2.556-.56 1.537 1.747 2.376 2.306.84.808-2.22-.336-4.67-2.554-5.48-2.218-.806-4.67.338-5.478 2.555-.56 1.538 1.747 2.377 2.306.84.808-2.218-.336-4.67-2.554-5.478-2.218-.807-4.67.336-5.477 2.554-.56 1.537 1.745 2.376 2.304.84l25.374-69.715-1.573.734 17.178 6.25z"/><path d="M198.57-43.924c.014-.043.06-.064.104-.048l16.577 6.033c.045.017.067.064.05.107l-1.656 4.554c-.016.044-.062.066-.106.05l-16.577-6.034c-.043-.016-.065-.063-.05-.105l1.66-4.554zm-2.307-.84l-1.658 4.556c-.48 1.316.2 2.77 1.516 3.25l16.578 6.034c1.318.48 2.772-.2 3.25-1.515l1.66-4.554c.478-1.316-.2-2.77-1.517-3.25l-16.576-6.034c-1.318-.48-2.772.2-3.25 1.515zM173.674 48.33c.14-.38.613-.89.897-.986.26-.09.483-.263.633-.494-.134.207-.31.337-.466.373l-.028.005c.012 0 .034 0 .066.003.11.014.264.052.46.124.197.07.34.14.432.202.026.018.044.03.054.04-.002 0-.01-.01-.02-.022-.095-.127-.146-.34-.116-.584-.03.247.014.497.13.718.173.333.22 1.043.09 1.4l-1.658 4.553c-.016.044-.063.066-.106.05l-1.977-.72c-.043-.015-.064-.062-.05-.104l1.66-4.555zm-2.306-.838l-1.658 4.554c-.48 1.316.2 2.77 1.516 3.25l1.977.72c1.316.48 2.772-.2 3.25-1.515l1.658-4.554c.366-1.002.274-2.428-.22-3.372l-1.086.567 1.217.152c.047-.37-.057-.797-.357-1.195-.327-.434-.852-.782-1.587-1.05-.736-.267-1.36-.338-1.89-.215-.486.112-.84.372-1.043.685l1.03.666-.398-1.16c-1.025.35-2.027 1.424-2.407 2.47z"/><path d="M204.285-54.86c.634-1.74 2.558-2.637 4.3-2.003l8.568 3.12c1.74.632 2.638 2.557 2.004 4.297l-3.8 10.44 1.573-.733-17.178-6.252.733 1.573 3.8-10.44zm-2.306-.838l-3.8 10.44c-.232.636.096 1.34.733 1.572l17.178 6.252c.637.232 1.342-.096 1.573-.733l3.8-10.44c1.097-3.014-.457-6.346-3.47-7.443l-8.57-3.12c-3.014-1.096-6.347.458-7.444 3.472zM170.268 31.768l1.312 14.793c.085.954 1.18 1.448 1.95.88l.023-.015c.037-.024.082-.053.133-.083.153-.09.322-.175.5-.244.444-.172.836-.21 1.13-.104.294.107.57.39.8.806.09.168.166.34.225.508.02.057.037.107.05.15l.007.026c.22.91 1.34 1.248 2.028.61l11.077-10.283c.497-.46.526-1.236.065-1.733-.46-.496-1.238-.525-1.734-.064l-11.078 10.283 2.027.61c-.023-.096-.064-.238-.127-.415-.1-.284-.228-.578-.388-.87-.49-.893-1.174-1.59-2.112-1.932-.937-.34-1.91-.246-2.86.123-.31.122-.595.265-.856.418-.162.096-.286.178-.365.237l1.95.88-1.313-14.794c-.06-.674-.656-1.172-1.33-1.112-.676.06-1.174.655-1.114 1.33zM233.624-46.013l7.873 2.866 1.153.42.84-2.306-1.153-.42-7.873-2.866-1.153-.418-.84 2.306M228.322-31.445l7.873 2.866 1.153.42.84-2.305-1.154-.42-7.873-2.866-1.152-.42-.84 2.306M231.113-39.112l4.294 1.563 1.153.42.84-2.305-1.154-.42-4.294-1.563-1.153-.42-.84 2.306M223.3-17.643l7.872 2.865 1.153.42.84-2.306-1.154-.42-7.872-2.865-1.153-.42-.84 2.307M225.81-24.544l4.295 1.563 1.153.42.84-2.307-1.154-.42-4.294-1.563-1.153-.42-.84 2.306M217.996-3.075L225.87-.21l1.152.42.84-2.306-1.153-.42-7.875-2.865-1.152-.42-.84 2.305M220.508-9.976l4.294 1.563 1.153.42.84-2.306-1.153-.42-4.295-1.562-1.153-.42-.84 2.306M212.694 11.493l7.873 2.866 1.153.418.84-2.306-1.154-.42-7.873-2.865-1.153-.42-.84 2.306M215.485 3.826l4.294 1.563 1.152.418.84-2.306-1.154-.42-4.294-1.562-1.153-.42-.838 2.306M207.67 25.294l7.874 2.866 1.153.42.84-2.306-1.154-.42-7.873-2.866-1.153-.42-.84 2.307M210.182 18.394l4.295 1.563 1.153.42.84-2.307-1.154-.42-4.295-1.562-1.15-.42-.84 2.306M202.368 39.862l7.873 2.866 1.154.42.84-2.306-1.153-.42-7.873-2.865-1.152-.42-.84 2.306M204.88 32.962l4.294 1.563 1.153.42.84-2.306-1.153-.42-4.295-1.564-1.154-.42-.84 2.306"/><path d="M238.794-56.63L200.35 48.995c-.402 1.104.167 2.323 1.27 2.725l21.598 7.86c1.103.402 2.323-.167 2.725-1.27l38.444-105.625c.402-1.104-.167-2.323-1.27-2.725l-21.598-7.86c-1.104-.402-2.324.167-2.726 1.27zm-2.306-.84c.865-2.376 3.493-3.602 5.87-2.737l21.598 7.86c2.376.866 3.602 3.493 2.737 5.872L228.248 59.15c-.865 2.376-3.493 3.602-5.87 2.737l-21.597-7.86c-2.376-.866-3.6-3.493-2.736-5.872L236.488-57.47z"/></g><g><path d="M214.482 166.985l-17.177-6.252c-.637-.232-1.34.096-1.573.733L170.36 231.18l2.304.84c.344-.946 1.388-1.433 2.333-1.09.944.345 1.43 1.39 1.087 2.333l2.306.84c.344-.945 1.388-1.432 2.333-1.088.944.344 1.43 1.388 1.087 2.333l2.306.84c.344-.946 1.388-1.433 2.333-1.09.943.345 1.43 1.39 1.086 2.334l2.306.84 25.374-69.714c.232-.637-.097-1.34-.734-1.573zm-.84 2.306l-.732-1.572-25.374 69.714c-.56 1.537 1.747 2.376 2.306.84.807-2.22-.336-4.67-2.554-5.48-2.218-.806-4.67.338-5.478 2.556-.56 1.537 1.747 2.376 2.306.84.808-2.22-.336-4.67-2.554-5.48-2.218-.806-4.67.338-5.478 2.555-.56 1.538 1.747 2.377 2.306.84.808-2.218-.336-4.67-2.554-5.478-2.218-.807-4.67.336-5.477 2.554-.56 1.537 1.745 2.376 2.304.84l25.374-69.715-1.573.734 17.178 6.25z"/><path d="M198.57 156.076c.014-.043.06-.064.104-.048l16.577 6.033c.045.017.067.064.05.107l-1.656 4.554c-.016.044-.062.066-.106.05l-16.577-6.034c-.043-.016-.065-.063-.05-.105l1.66-4.554zm-2.307-.84l-1.658 4.556c-.48 1.316.2 2.77 1.516 3.25l16.578 6.034c1.318.48 2.772-.2 3.25-1.515l1.66-4.554c.478-1.316-.2-2.77-1.517-3.25l-16.576-6.034c-1.318-.48-2.772.2-3.25 1.515zM173.674 248.33c.14-.38.613-.89.897-.986.26-.09.483-.263.633-.494-.134.207-.31.337-.466.373l-.028.005c.012 0 .034 0 .066.003.11.014.264.052.46.124.197.07.34.14.432.202.026.018.044.03.054.04-.002 0-.01-.01-.02-.022-.095-.127-.146-.34-.116-.584-.03.247.014.497.13.718.173.333.22 1.043.09 1.4l-1.658 4.553c-.016.044-.063.066-.106.05l-1.977-.72c-.043-.015-.064-.062-.05-.104l1.66-4.555zm-2.306-.838l-1.658 4.554c-.48 1.316.2 2.77 1.516 3.25l1.977.72c1.316.48 2.772-.2 3.25-1.515l1.658-4.554c.366-1.002.274-2.428-.22-3.372l-1.086.567 1.217.152c.047-.37-.057-.797-.357-1.195-.327-.434-.852-.782-1.587-1.05-.736-.267-1.36-.338-1.89-.215-.486.112-.84.372-1.043.685l1.03.666-.398-1.16c-1.025.35-2.027 1.424-2.407 2.47z"/><path d="M204.285 145.14c.634-1.74 2.558-2.637 4.3-2.003l8.568 3.12c1.74.632 2.638 2.557 2.004 4.297l-3.8 10.44 1.573-.733-17.178-6.252.733 1.573 3.8-10.44zm-2.306-.838l-3.8 10.44c-.232.636.096 1.34.733 1.572l17.178 6.252c.637.232 1.342-.096 1.573-.733l3.8-10.44c1.097-3.014-.457-6.346-3.47-7.443l-8.57-3.12c-3.014-1.096-6.347.458-7.444 3.472zM170.268 231.768l1.312 14.793c.085.954 1.18 1.448 1.95.88l.023-.015c.037-.024.082-.053.133-.083.153-.09.322-.175.5-.244.444-.172.836-.21 1.13-.104.294.107.57.39.8.806.09.168.166.34.225.508.02.057.037.107.05.15l.007.026c.22.91 1.34 1.248 2.028.61l11.077-10.283c.497-.46.526-1.236.065-1.733-.46-.496-1.238-.525-1.734-.064l-11.078 10.283 2.027.61c-.023-.096-.064-.238-.127-.415-.1-.284-.228-.578-.388-.87-.49-.893-1.174-1.59-2.112-1.932-.937-.34-1.91-.246-2.86.123-.31.122-.595.265-.856.418-.162.096-.286.178-.365.237l1.95.88-1.313-14.794c-.06-.674-.656-1.172-1.33-1.112-.676.06-1.174.655-1.114 1.33zM233.624 153.987l7.873 2.866 1.153.42.84-2.306-1.153-.42-7.873-2.866-1.153-.418-.84 2.306M228.322 168.555l7.873 2.866 1.153.42.84-2.305-1.154-.42-7.873-2.866-1.152-.42-.84 2.306M231.113 160.888l4.294 1.563 1.153.42.84-2.305-1.154-.42-4.294-1.563-1.153-.42-.84 2.306M223.3 182.357l7.872 2.865 1.153.42.84-2.306-1.154-.42-7.872-2.865-1.153-.42-.84 2.307M225.81 175.456l4.295 1.563 1.153.42.84-2.307-1.154-.42-4.294-1.563-1.153-.42-.84 2.306M217.996 196.925l7.873 2.865 1.152.42.84-2.306-1.153-.42-7.875-2.865-1.152-.42-.84 2.305M220.508 190.024l4.294 1.563 1.153.42.84-2.306-1.153-.42-4.295-1.562-1.153-.42-.84 2.306M212.694 211.493l7.873 2.866 1.153.418.84-2.306-1.154-.42-7.873-2.865-1.153-.42-.84 2.306M215.485 203.826l4.294 1.563 1.152.418.84-2.306-1.154-.42-4.294-1.562-1.153-.42-.838 2.306M207.67 225.294l7.874 2.866 1.153.42.84-2.306-1.154-.42-7.873-2.866-1.153-.42-.84 2.307M210.182 218.394l4.295 1.563 1.153.42.84-2.307-1.154-.42-4.295-1.562-1.15-.42-.84 2.306M202.368 239.862l7.873 2.866 1.154.42.84-2.306-1.153-.42-7.873-2.865-1.152-.42-.84 2.306M204.88 232.962l4.294 1.563 1.153.42.84-2.306-1.153-.42-4.295-1.564-1.154-.42-.84 2.306"/><path d="M238.794 143.37L200.35 248.995c-.402 1.104.167 2.323 1.27 2.725l21.598 7.86c1.103.402 2.323-.167 2.725-1.27l38.444-105.625c.402-1.104-.167-2.323-1.27-2.725l-21.598-7.86c-1.104-.402-2.324.167-2.726 1.27zm-2.306-.84c.865-2.376 3.493-3.602 5.87-2.737l21.598 7.86c2.376.866 3.602 3.493 2.737 5.872L228.248 259.15c-.865 2.376-3.493 3.602-5.87 2.737l-21.597-7.86c-2.376-.866-3.6-3.493-2.736-5.872l38.444-105.624z"/></g></g></svg>