<svg width="352" height="176" viewBox="0 0 352 176" xmlns="http://www.w3.org/2000/svg" xmlns:xlink="http://www.w3.org/1999/xlink"><defs><path id="a" d="M6 6h55v55H6z"/><mask id="m" x="0" y="0" width="55" height="55" fill="#fff"><use xlink:href="#a"/></mask><path id="b" d="M66 6h55v55H66z"/><mask id="n" x="0" y="0" width="55" height="55" fill="#fff"><use xlink:href="#b"/></mask><path id="c" d="M66 66h55v55H66z"/><mask id="o" x="0" y="0" width="55" height="55" fill="#fff"><use xlink:href="#c"/></mask><path id="d" d="M6 66h55v55H6z"/><mask id="p" x="0" y="0" width="55" height="55" fill="#fff"><use xlink:href="#d"/></mask><path id="e" d="M6 6h55v55H6z"/><mask id="q" x="0" y="0" width="55" height="55" fill="#fff"><use xlink:href="#e"/></mask><path id="f" d="M66 6h55v55H66z"/><mask id="r" x="0" y="0" width="55" height="55" fill="#fff"><use xlink:href="#f"/></mask><path id="g" d="M66 66h55v55H66z"/><mask id="s" x="0" y="0" width="55" height="55" fill="#fff"><use xlink:href="#g"/></mask><path id="h" d="M6 66h55v55H6z"/><mask id="t" x="0" y="0" width="55" height="55" fill="#fff"><use xlink:href="#h"/></mask><path id="i" d="M6 6h55v55H6z"/><mask id="u" x="0" y="0" width="55" height="55" fill="#fff"><use xlink:href="#i"/></mask><path id="j" d="M66 6h55v55H66z"/><mask id="v" x="0" y="0" width="55" height="55" fill="#fff"><use xlink:href="#j"/></mask><path id="k" d="M66 66h55v55H66z"/><mask id="w" x="0" y="0" width="55" height="55" fill="#fff"><use xlink:href="#k"/></mask><path id="l" d="M6 66h55v55H6z"/><mask id="x" x="0" y="0" width="55" height="55" fill="#fff"><use xlink:href="#l"/></mask></defs><g stroke="#0A91F0" stroke-width="6" fill="none" fill-rule="evenodd"><g transform="translate(0 25)"><use mask="url(#m)" xlink:href="#a"/><use mask="url(#n)" xlink:href="#b"/><use mask="url(#o)" xlink:href="#c"/><use mask="url(#p)" xlink:href="#d"/></g><g transform="translate(176 -63)"><use mask="url(#q)" xlink:href="#e"/><use mask="url(#r)" xlink:href="#f"/><use mask="url(#s)" xlink:href="#g"/><use mask="url(#t)" xlink:href="#h"/></g><g transform="translate(176 113)"><use mask="url(#u)" xlink:href="#i"/><use mask="url(#v)" xlink:href="#j"/><use mask="url(#w)" xlink:href="#k"/><use mask="url(#x)" xlink:href="#l"/></g></g></svg>