<svg width="410" height="176" viewBox="0 0 410 176" xmlns="http://www.w3.org/2000/svg"><g fill="#3DBFD9" fill-rule="evenodd"><path d="M34.458 48.18l-12.26-2.16c-4.144-.732-8.095 2.036-8.826 6.182l-11.65 66.063c-.73 4.145 2.037 8.098 6.18 8.828l119.944 21.15c4.144.73 8.095-2.037 8.826-6.183l11.65-66.063c.73-4.145-2.037-8.098-6.18-8.83l-12.26-2.16-.53 3 12.26 2.163c2.486.438 4.146 2.81 3.707 5.298l-11.65 66.063c-.44 2.49-2.81 4.15-5.295 3.71L8.43 124.094c-2.484-.438-4.144-2.81-3.706-5.298l11.65-66.063c.438-2.487 2.808-4.148 5.294-3.71l12.26 2.162.53-3z"/><path d="M35.44 49.42l-.953 5.408c.02-.108-.055-.215-.166-.234l13.406 2.363c-.113-.02-.217.053-.237.164l.953-5.407c-.02.108.055.215.166.234l-13.405-2.363c.113.02.217-.053.237-.164zm-3.2-.565c.292-1.658 1.874-2.766 3.53-2.474l13.403 2.366c1.657.292 2.763 1.872 2.47 3.53l-.953 5.41c-.293 1.66-1.875 2.766-3.53 2.474l-13.404-2.365c-1.657-.292-2.763-1.872-2.47-3.53l.953-5.41zm82.97 14.63l-.953 5.41c.02-.11-.056-.216-.167-.236l13.404 2.362c-.113-.02-.217.053-.236.163l.953-5.41c-.017.11.058.216.17.236l-13.405-2.363c.113.02.217-.053.236-.163zm-3.2-.565c.29-1.658 1.873-2.765 3.528-2.473l13.404 2.363c1.657.292 2.763 1.872 2.47 3.532l-.953 5.41c-.294 1.657-1.877 2.764-3.53 2.472l-13.405-2.363c-1.657-.29-2.764-1.87-2.47-3.53l.953-5.41z"/><path d="M33.596 58.438l3.766-2.637-3.496 19.828c.02-.11-.055-.215-.164-.234l6.094 1.074c-.11-.02-.215.054-.234.165l3.496-19.827 2.637 3.766-12.1-2.132zm.564-3.202l12.1 2.134-3.497 19.826c-.292 1.658-1.873 2.765-3.53 2.473l-6.095-1.077c-1.66-.292-2.766-1.872-2.474-3.53l3.496-19.828zm80.19 17.44l3.766-2.636-3.496 19.826c.02-.11-.054-.215-.164-.234l6.094 1.074c-.11-.02-.214.055-.234.165l3.496-19.825 2.637 3.767-12.1-2.133zm.565-3.2l12.1 2.133-3.497 19.824c-.293 1.658-1.874 2.765-3.532 2.473l-6.094-1.075c-1.658-.292-2.766-1.872-2.473-3.53l3.494-19.827zM51.12 54.215l61.636 10.868 1.5.264.53-3-1.5-.266L51.65 51.212l-1.503-.265-.53 3.002M8.452 98.09l12.178-2.507c.26-.054.5.108.547.37l3.583 19.596c.056.3-.16.63-.46.7l-19.868 4.63.692 2.97 19.87-4.63c1.882-.44 3.112-2.317 2.764-4.22l-3.583-19.595c-.355-1.944-2.224-3.207-4.16-2.808L7.837 95.104l.615 2.985z"/><path d="M64.734 54.883l2.912-16.516c.146-.83.937-1.383 1.764-1.237l31.483 5.55c.827.147 1.38.938 1.234 1.768l-2.983 16.918 3.002.53 2.983-16.92c.436-2.486-1.223-4.858-3.71-5.296l-31.48-5.55c-2.485-.44-4.857 1.222-5.295 3.707l-2.913 16.517 3.002.53z"/><path d="M71.54 56.6l2.278-12.925c-.126.716-.808 1.198-1.532 1.07l23.346 4.117c-.725-.128-1.2-.816-1.074-1.53l-2.154 12.216 3.002.53L97.56 47.86c.165-.933-.456-1.833-1.4-2l-23.344-4.116c-.94-.166-1.834.465-2 1.402L68.54 56.07l3 .53zm38.595 79.942c9.213 1.625 17.998-4.527 19.623-13.74 1.624-9.213-4.527-17.998-13.74-19.623-9.213-1.626-18 4.525-19.623 13.74-1.625 9.21 4.527 17.997 13.74 19.62zm.53-3c-7.556-1.333-12.6-8.538-11.27-16.093 1.333-7.558 8.538-12.603 16.093-11.27 7.556 1.332 12.6 8.537 11.268 16.092-1.332 7.555-8.537 12.6-16.092 11.268z"/><path d="M102.99 119.827l4.553 6.217.89 1.216 1.226-.877 13.465-9.63-1.773-2.48-13.467 9.63 2.116.34-4.552-6.216M239.458-39.82l-12.26-2.16c-4.144-.732-8.095 2.036-8.826 6.182l-11.65 66.063c-.73 4.145 2.037 8.098 6.18 8.828l119.944 21.15c4.144.73 8.095-2.037 8.826-6.183l11.65-66.063c.73-4.145-2.037-8.098-6.18-8.83l-12.26-2.16-.53 3 12.26 2.163c2.486.438 4.146 2.81 3.707 5.298L338.67 53.53c-.438 2.49-2.808 4.15-5.294 3.71L213.43 36.093c-2.484-.438-4.144-2.81-3.706-5.298l11.65-66.063c.438-2.487 2.808-4.148 5.294-3.71l12.26 2.162.53-3z"/><path d="M240.44-38.58l-.953 5.408c.02-.108-.055-.215-.166-.234l13.406 2.363c-.113-.02-.217.053-.237.164l.953-5.407c-.02.108.055.215.166.234l-13.405-2.363c.113.02.217-.053.237-.164zm-3.2-.565c.292-1.658 1.874-2.766 3.53-2.474l13.403 2.366c1.657.292 2.763 1.872 2.47 3.53l-.953 5.41c-.293 1.66-1.875 2.766-3.53 2.474l-13.404-2.365c-1.657-.292-2.763-1.872-2.47-3.53l.953-5.41zm82.97 14.63l-.953 5.41c.02-.11-.056-.216-.167-.236l13.404 2.362c-.113-.02-.217.053-.236.163l.953-5.41c-.017.11.058.216.17.236l-13.405-2.363c.113.02.217-.053.236-.163zm-3.2-.565c.29-1.658 1.873-2.765 3.528-2.473l13.404 2.363c1.657.292 2.763 1.872 2.47 3.532l-.953 5.41c-.294 1.657-1.877 2.764-3.53 2.472l-13.405-2.363c-1.657-.29-2.764-1.87-2.47-3.53l.953-5.41z"/><path d="M238.596-29.562l3.766-2.637-3.496 19.828c.02-.11-.055-.215-.164-.234l6.094 1.074c-.11-.02-.215.054-.234.165l3.496-19.827 2.637 3.766-12.1-2.132zm.564-3.202l12.1 2.134-3.497 19.826c-.292 1.658-1.873 2.765-3.53 2.473l-6.095-1.077c-1.66-.292-2.766-1.872-2.474-3.53l3.496-19.828zm80.19 17.44l3.766-2.636-3.496 19.826c.02-.11-.054-.215-.164-.234l6.094 1.074c-.11-.02-.214.055-.234.165l3.496-19.825 2.637 3.767-12.1-2.133zm.565-3.2l12.1 2.133-3.497 19.824c-.293 1.658-1.874 2.765-3.532 2.473l-6.094-1.075c-1.658-.292-2.766-1.872-2.473-3.53l3.494-19.827zM256.12-33.785l61.636 10.868 1.5.264.53-3-1.5-.266-61.637-10.868-1.503-.265-.53 3.002m-41.165 44.14l12.178-2.507c.26-.054.5.108.547.37l3.583 19.596c.056.3-.16.63-.46.7l-19.868 4.63.692 2.97 19.87-4.63c1.882-.44 3.112-2.317 2.764-4.22l-3.583-19.595c-.355-1.944-2.224-3.207-4.16-2.808l-12.178 2.506.615 2.985z"/><path d="M269.734-33.117l2.912-16.516c.146-.83.937-1.383 1.764-1.237l31.483 5.55c.827.147 1.38.938 1.234 1.768l-2.983 16.918 3.002.53 2.983-16.92c.436-2.486-1.223-4.858-3.71-5.296l-31.482-5.55c-2.485-.44-4.857 1.222-5.295 3.707l-2.913 16.517 3.002.53z"/><path d="M276.54-31.4l2.278-12.925c-.126.716-.808 1.198-1.532 1.07l23.346 4.117c-.725-.128-1.2-.816-1.074-1.53l-2.154 12.216 3.002.53 2.154-12.217c.165-.932-.456-1.832-1.4-2l-23.344-4.115c-.94-.166-1.834.465-2 1.402L273.54-31.93l3 .53zm38.595 79.942c9.213 1.625 17.998-4.527 19.623-13.74 1.624-9.213-4.527-17.998-13.74-19.623-9.213-1.626-18 4.525-19.623 13.74-1.625 9.21 4.527 17.997 13.74 19.62zm.53-3c-7.556-1.333-12.6-8.538-11.27-16.093 1.333-7.558 8.538-12.603 16.093-11.27 7.556 1.332 12.6 8.537 11.268 16.092-1.332 7.555-8.537 12.6-16.092 11.268z"/><path d="M307.99 31.827l4.553 6.217.89 1.216 1.226-.877 13.465-9.63-1.773-2.48-13.467 9.63 2.116.34-4.552-6.216"/><g><path d="M239.458 136.18l-12.26-2.16c-4.144-.732-8.095 2.036-8.826 6.182l-11.65 66.063c-.73 4.145 2.037 8.098 6.18 8.828l119.944 21.15c4.144.73 8.095-2.037 8.826-6.183l11.65-66.063c.73-4.145-2.037-8.098-6.18-8.83l-12.26-2.16-.53 3 12.26 2.163c2.486.438 4.146 2.81 3.707 5.298l-11.65 66.063c-.44 2.49-2.81 4.15-5.295 3.71L213.43 212.094c-2.484-.438-4.144-2.81-3.706-5.298l11.65-66.063c.438-2.487 2.808-4.148 5.294-3.71l12.26 2.162.53-3z"/><path d="M240.44 137.42l-.953 5.408c.02-.108-.055-.215-.166-.234l13.406 2.363c-.113-.02-.217.053-.237.164l.953-5.407c-.02.108.055.215.166.234l-13.405-2.363c.113.02.217-.053.237-.164zm-3.2-.565c.292-1.658 1.874-2.766 3.53-2.474l13.403 2.366c1.657.292 2.763 1.872 2.47 3.53l-.953 5.41c-.293 1.66-1.875 2.766-3.53 2.474l-13.404-2.365c-1.657-.292-2.763-1.872-2.47-3.53l.953-5.41zm82.97 14.63l-.953 5.41c.02-.11-.056-.216-.167-.236l13.404 2.362c-.113-.02-.217.053-.236.163l.953-5.41c-.017.11.058.216.17.236l-13.405-2.363c.113.02.217-.053.236-.163zm-3.2-.565c.29-1.658 1.873-2.765 3.528-2.473l13.404 2.363c1.657.292 2.763 1.872 2.47 3.532l-.953 5.41c-.294 1.657-1.877 2.764-3.53 2.472l-13.405-2.363c-1.657-.29-2.764-1.87-2.47-3.53l.953-5.41z"/><path d="M238.596 146.438l3.766-2.637-3.496 19.828c.02-.11-.055-.215-.164-.234l6.094 1.074c-.11-.02-.215.054-.234.165l3.496-19.827 2.637 3.766-12.1-2.132zm.564-3.202l12.1 2.134-3.497 19.826c-.292 1.658-1.873 2.765-3.53 2.473l-6.095-1.077c-1.66-.292-2.766-1.872-2.474-3.53l3.496-19.828zm80.19 17.44l3.766-2.636-3.496 19.826c.02-.11-.054-.215-.164-.234l6.094 1.074c-.11-.02-.214.055-.234.165l3.496-19.825 2.637 3.767-12.1-2.133zm.565-3.2l12.1 2.133-3.497 19.824c-.293 1.658-1.874 2.765-3.532 2.473l-6.094-1.075c-1.658-.292-2.766-1.872-2.473-3.53l3.494-19.827zm-63.795-15.262l61.636 10.868 1.5.264.53-3-1.5-.266-61.637-10.868-1.503-.265-.53 3.002m-41.165 44.14l12.178-2.507c.26-.054.5.108.547.37l3.583 19.596c.056.3-.16.63-.46.7l-19.868 4.63.692 2.97 19.87-4.63c1.882-.44 3.112-2.317 2.764-4.22l-3.583-19.595c-.355-1.944-2.224-3.207-4.16-2.808l-12.178 2.506.615 2.985z"/><path d="M269.734 142.883l2.912-16.516c.146-.83.937-1.383 1.764-1.237l31.483 5.55c.827.147 1.38.938 1.234 1.768l-2.983 16.918 3.002.53 2.983-16.92c.436-2.486-1.223-4.858-3.71-5.296l-31.482-5.55c-2.485-.44-4.857 1.222-5.295 3.707l-2.913 16.517 3.002.53z"/><path d="M276.54 144.6l2.278-12.925c-.126.716-.808 1.198-1.532 1.07l23.346 4.117c-.725-.128-1.2-.816-1.074-1.53l-2.154 12.216 3.002.53 2.154-12.217c.165-.932-.456-1.832-1.4-2l-23.344-4.115c-.94-.166-1.834.465-2 1.402l-2.278 12.925 3 .53zm38.595 79.942c9.213 1.625 17.998-4.527 19.623-13.74 1.624-9.213-4.527-17.998-13.74-19.623-9.213-1.626-18 4.525-19.623 13.74-1.625 9.21 4.527 17.997 13.74 19.62zm.53-3c-7.556-1.333-12.6-8.538-11.27-16.093 1.333-7.558 8.538-12.603 16.093-11.27 7.556 1.332 12.6 8.537 11.268 16.092-1.332 7.555-8.537 12.6-16.092 11.268z"/><path d="M307.99 207.827l4.553 6.217.89 1.216 1.226-.877 13.465-9.63-1.773-2.48-13.467 9.63 2.116.34-4.552-6.216"/></g></g></svg>