<svg width="282" height="128" viewBox="0 0 282 128" xmlns="http://www.w3.org/2000/svg"><g fill="#EF8D24" fill-rule="evenodd"><g transform="rotate(-5 372.082 5.37)"><path d="M1.96 5.984v57.98c0 1.766 1.43 3.197 3.196 3.197h73.53c1.766 0 3.197-1.43 3.197-3.195V5.985c0-1.766-1.43-3.196-3.196-3.196H5.157c-1.767 0-3.198 1.43-3.198 3.194zm-1.918 0C.042 3.16 2.332.872 5.156.872h73.53c2.825 0 5.114 2.288 5.114 5.112v57.98c0 2.825-2.29 5.114-5.113 5.114H5.157c-2.825 0-5.115-2.29-5.115-5.113V5.985z"/><circle cx="7.57" cy="7.238" r="1.228"/><circle cx="11.662" cy="7.238" r="1.228"/><circle cx="15.754" cy="7.238" r="1.228"/><path d="M17.304 19.855h19.78v2.455h-19.78zM50.725 41.68h19.78v2.456h-19.78zM17.304 25.312h26.6v2.455h-26.6zM46.633 25.312h26.6v2.455h-26.6zM17.304 30.768h33.42v2.455h-33.42zM53.453 30.768h13.64v2.455h-13.64zM17.304 36.225h38.878v2.455H17.304zM17.304 41.68h30.693v2.456H17.304zM17.304 47.138h19.78v2.455h-19.78zM39.812 47.138h19.78v2.455h-19.78zM17.304 52.594h14.323v2.455H17.304zM34.356 52.594H48.68v2.455H34.355zM1.72 13.333h80.863v-1.917H.764v1.917"/><path d="M8.37 12.37v55.513h1.917V11.41H8.37"/></g><g transform="rotate(-5 -290.338 -1641.344)"><path d="M1.96 5.984v57.98c0 1.766 1.43 3.197 3.196 3.197h73.53c1.766 0 3.197-1.43 3.197-3.195V5.985c0-1.766-1.43-3.196-3.196-3.196H5.157c-1.767 0-3.198 1.43-3.198 3.194zm-1.918 0C.042 3.16 2.332.872 5.156.872h73.53c2.825 0 5.114 2.288 5.114 5.112v57.98c0 2.825-2.29 5.114-5.113 5.114H5.157c-2.825 0-5.115-2.29-5.115-5.113V5.985z"/><circle cx="7.57" cy="7.238" r="1.228"/><circle cx="11.662" cy="7.238" r="1.228"/><circle cx="15.754" cy="7.238" r="1.228"/><path d="M17.304 19.855h19.78v2.455h-19.78zM50.725 41.68h19.78v2.456h-19.78zM17.304 25.312h26.6v2.455h-26.6zM46.633 25.312h26.6v2.455h-26.6zM17.304 30.768h33.42v2.455h-33.42zM53.453 30.768h13.64v2.455h-13.64zM17.304 36.225h38.878v2.455H17.304zM17.304 41.68h30.693v2.456H17.304zM17.304 47.138h19.78v2.455h-19.78zM39.812 47.138h19.78v2.455h-19.78zM17.304 52.594h14.323v2.455H17.304zM34.356 52.594H48.68v2.455H34.355zM1.72 13.333h80.863v-1.917H.764v1.917"/><path d="M8.37 12.37v55.513h1.917V11.41H8.37"/></g><g transform="rotate(-5 1175.503 -1577.344)"><path d="M1.96 5.984v57.98c0 1.766 1.43 3.197 3.196 3.197h73.53c1.766 0 3.197-1.43 3.197-3.195V5.985c0-1.766-1.43-3.196-3.196-3.196H5.157c-1.767 0-3.198 1.43-3.198 3.194zm-1.918 0C.042 3.16 2.332.872 5.156.872h73.53c2.825 0 5.114 2.288 5.114 5.112v57.98c0 2.825-2.29 5.114-5.113 5.114H5.157c-2.825 0-5.115-2.29-5.115-5.113V5.985z"/><circle cx="7.57" cy="7.238" r="1.228"/><circle cx="11.662" cy="7.238" r="1.228"/><circle cx="15.754" cy="7.238" r="1.228"/><path d="M17.304 19.855h19.78v2.455h-19.78zM50.725 41.68h19.78v2.456h-19.78zM17.304 25.312h26.6v2.455h-26.6zM46.633 25.312h26.6v2.455h-26.6zM17.304 30.768h33.42v2.455h-33.42zM53.453 30.768h13.64v2.455h-13.64zM17.304 36.225h38.878v2.455H17.304zM17.304 41.68h30.693v2.456H17.304zM17.304 47.138h19.78v2.455h-19.78zM39.812 47.138h19.78v2.455h-19.78zM17.304 52.594h14.323v2.455H17.304zM34.356 52.594H48.68v2.455H34.355zM1.72 13.333h80.863v-1.917H.764v1.917"/><path d="M8.37 12.37v55.513h1.917V11.41H8.37"/></g></g></svg>