<svg width="472" height="234" viewBox="0 0 472 234" xmlns="http://www.w3.org/2000/svg"><g stroke="#8E4CD9" fill="none" fill-rule="evenodd"><g transform="rotate(10 -131.074 170.755)" stroke-width="4"><path d="M159.524 85.756c-.448 39.325-32.465 71.066-71.896 71.066-21.018 0-39.93-9.02-53.076-23.397-3.61 2.712-8.097 4.32-12.96 4.32C9.668 137.745 0 128.077 0 116.152c0-10.154 7.01-18.67 16.453-20.977-.44-3.08-.685-6.225-.72-9.42-.004-.036-.006-.074-.006-.112 0-.028 0-.057.003-.086l-.003-.636h.196c2.734-5.03 33.793-8.996 71.705-8.996s68.97 3.967 71.705 8.998h.196c0 .213-.003.425-.005.637l.003.085c0 .038-.003.076-.006.113l.002-.002zM27.93 124.478c-1.718 1.23-3.823 1.953-6.098 1.953-5.796 0-10.495-4.697-10.495-10.493 0-4.835 3.27-8.907 7.718-10.124 2.06 6.69 5.072 12.965 8.876 18.666v-.002zM72.92 0s-4.334 0-4.334 4.117 4.334 4.55 4.334 4.55 4.117.217 4.117 4.118c0 3.9-3.9 4.333-3.9 4.333s-4.55.434-4.55 4.334c0 3.9 4.55 4.55 4.55 4.55s3.9.325 3.9 4.225c0 3.9-4.117 4.226-4.117 4.226s-4.334.217-4.334 4.334 4.334 4.55 4.334 4.55 4.117.434 4.117 4.118c0 3.683-3.9 4.333-3.9 4.333s-4.55.434-4.55 4.334c0 3.9 4.333 4.334 4.333 4.334m28.042-29.43s-2.38 0-2.38 2.26c0 2.262 2.38 2.5 2.38 2.5s2.26.12 2.26 2.262-2.14 2.38-2.14 2.38-2.5.238-2.5 2.38 2.5 2.5 2.5 2.5 2.14.177 2.14 2.32c0 2.14-2.26 2.32-2.26 2.32s-2.38.12-2.38 2.38c0 2.262 2.38 2.5 2.38 2.5s2.26.238 2.26 2.26c0 2.024-2.14 2.38-2.14 2.38s-2.5.24-2.5 2.38c0 2.143 2.38 2.38 2.38 2.38"/><ellipse cx="87.667" cy="84.856" rx="71.801" ry="8.589"/></g><g transform="rotate(10 655.584 1461)" stroke-width="4"><path d="M159.524 85.756c-.448 39.325-32.465 71.066-71.896 71.066-21.018 0-39.93-9.02-53.076-23.397-3.61 2.712-8.097 4.32-12.96 4.32C9.668 137.745 0 128.077 0 116.152c0-10.154 7.01-18.67 16.453-20.977-.44-3.08-.685-6.225-.72-9.42-.004-.036-.006-.074-.006-.112 0-.028 0-.057.003-.086l-.003-.636h.196c2.734-5.03 33.793-8.996 71.705-8.996s68.97 3.967 71.705 8.998h.196c0 .213-.003.425-.005.637l.003.085c0 .038-.003.076-.006.113l.002-.002zM27.93 124.478c-1.718 1.23-3.823 1.953-6.098 1.953-5.796 0-10.495-4.697-10.495-10.493 0-4.835 3.27-8.907 7.718-10.124 2.06 6.69 5.072 12.965 8.876 18.666v-.002zM72.92 0s-4.334 0-4.334 4.117 4.334 4.55 4.334 4.55 4.117.217 4.117 4.118c0 3.9-3.9 4.333-3.9 4.333s-4.55.434-4.55 4.334c0 3.9 4.55 4.55 4.55 4.55s3.9.325 3.9 4.225c0 3.9-4.117 4.226-4.117 4.226s-4.334.217-4.334 4.334 4.334 4.55 4.334 4.55 4.117.434 4.117 4.118c0 3.683-3.9 4.333-3.9 4.333s-4.55.434-4.55 4.334c0 3.9 4.333 4.334 4.333 4.334m28.042-29.43s-2.38 0-2.38 2.26c0 2.262 2.38 2.5 2.38 2.5s2.26.12 2.26 2.262-2.14 2.38-2.14 2.38-2.5.238-2.5 2.38 2.5 2.5 2.5 2.5 2.14.177 2.14 2.32c0 2.14-2.26 2.32-2.26 2.32s-2.38.12-2.38 2.38c0 2.262 2.38 2.5 2.38 2.5s2.26.238 2.26 2.26c0 2.024-2.14 2.38-2.14 2.38s-2.5.24-2.5 2.38c0 2.143 2.38 2.38 2.38 2.38"/><ellipse cx="87.667" cy="84.856" rx="71.801" ry="8.589"/></g><g transform="rotate(10 -681.732 1578)" stroke-width="4"><path d="M159.524 85.756c-.448 39.325-32.465 71.066-71.896 71.066-21.018 0-39.93-9.02-53.076-23.397-3.61 2.712-8.097 4.32-12.96 4.32C9.668 137.745 0 128.077 0 116.152c0-10.154 7.01-18.67 16.453-20.977-.44-3.08-.685-6.225-.72-9.42-.004-.036-.006-.074-.006-.112 0-.028 0-.057.003-.086l-.003-.636h.196c2.734-5.03 33.793-8.996 71.705-8.996s68.97 3.967 71.705 8.998h.196c0 .213-.003.425-.005.637l.003.085c0 .038-.003.076-.006.113l.002-.002zM27.93 124.478c-1.718 1.23-3.823 1.953-6.098 1.953-5.796 0-10.495-4.697-10.495-10.493 0-4.835 3.27-8.907 7.718-10.124 2.06 6.69 5.072 12.965 8.876 18.666v-.002zM72.92 0s-4.334 0-4.334 4.117 4.334 4.55 4.334 4.55 4.117.217 4.117 4.118c0 3.9-3.9 4.333-3.9 4.333s-4.55.434-4.55 4.334c0 3.9 4.55 4.55 4.55 4.55s3.9.325 3.9 4.225c0 3.9-4.117 4.226-4.117 4.226s-4.334.217-4.334 4.334 4.334 4.55 4.334 4.55 4.117.434 4.117 4.118c0 3.683-3.9 4.333-3.9 4.333s-4.55.434-4.55 4.334c0 3.9 4.333 4.334 4.333 4.334m28.042-29.43s-2.38 0-2.38 2.26c0 2.262 2.38 2.5 2.38 2.5s2.26.12 2.26 2.262-2.14 2.38-2.14 2.38-2.5.238-2.5 2.38 2.5 2.5 2.5 2.5 2.14.177 2.14 2.32c0 2.14-2.26 2.32-2.26 2.32s-2.38.12-2.38 2.38c0 2.262 2.38 2.5 2.38 2.5s2.26.238 2.26 2.26c0 2.024-2.14 2.38-2.14 2.38s-2.5.24-2.5 2.38c0 2.143 2.38 2.38 2.38 2.38"/><ellipse cx="87.667" cy="84.856" rx="71.801" ry="8.589"/></g></g></svg>