<svg width="338" height="204" viewBox="0 0 338 204" xmlns="http://www.w3.org/2000/svg"><g fill="#F6B33C" fill-rule="evenodd"><path d="M54.675 56.362l9.942-.39.07-.004.07-.008c1.652-.202 3.286-1.513 3.84-3.082l5.755-16.3.01-.028c.066-.197.122-.305.14-.326-.086.1-.26.2-.48.23-.183.025-.31-.005-.368-.036.063.034.178.128.323.282.828.88 1.862 2.837 2.75 5.297 2.104 5.813 2.8 12.32 1.412 16.132-3.168 8.697-10.96 14.675-19.894 15.55l-1.11.11-.346 1.06c-.008.03-.008.03-.057.177l-.17.523-.66 2.008c-.713 2.176-1.523 4.643-2.415 7.35-2.548 7.735-5.234 15.853-7.936 23.965-1.64 4.922-3.237 9.697-4.777 14.276-9.158 27.24-15.4 44.96-16.774 47.254-2.702 4.513-6.576 5.28-12.64 3.074v-.002c-6.063-2.207-8.537-5.285-7.707-10.48.422-2.642 7.03-20.228 17.525-46.982 1.765-4.498 3.61-9.182 5.518-14.006C29.84 94.058 33 86.11 36.02 78.548c1.058-2.647 2.02-5.057 2.874-7.183.3-.744.56-1.4.786-1.96l.204-.51.07-.175.416-1.034-.78-.797c-6.28-6.413-8.407-16-5.24-24.7 1.387-3.813 6.1-8.35 11.45-11.45 2.262-1.314 4.31-2.148 5.512-2.29.21-.025.358-.023.428-.01-.063-.012-.18-.07-.305-.207-.15-.164-.218-.354-.22-.486 0 .028-.026.146-.102.34l-.01.028-6.07 16.186c-.583 1.56-.174 3.614.962 4.83l.048.05.05.048 7.367 6.69.517.47.698-.028v.002zm-.134-3.41l1.216.44-7.366-6.69-1.148 1.264L48.49 46.8c-.253-.267-.39-.955-.26-1.3l6.067-16.184-.01.028c1.094-2.77-.59-4.61-3.377-4.282-1.755.208-4.193 1.2-6.823 2.727-5.975 3.464-11.23 8.52-12.945 13.235-3.618 9.94-1.185 20.91 6.01 28.257l-.365-1.83-.07.174-.205.51c-.226.562-.49 1.218-.787 1.963-.853 2.126-1.817 4.54-2.875 7.186-3.022 7.567-6.184 15.516-9.33 23.47-1.908 4.828-3.755 9.515-5.52 14.016C7.202 142.298.766 159.422.28 162.462c-1.125 7.05 2.463 11.514 9.91 14.225h.002c7.448 2.712 13.067 1.6 16.737-4.526 1.58-2.64 7.657-19.895 17.08-47.922 1.54-4.583 3.14-9.36 4.78-14.285 2.703-8.116 5.39-16.237 7.94-23.976.89-2.71 1.702-5.176 2.416-7.354l.66-2.01.17-.522.06-.18-1.457 1.17c10.232-1.003 19.15-7.843 22.765-17.783 1.717-4.715.942-11.965-1.408-18.46-1.034-2.86-2.264-5.187-3.475-6.475-1.923-2.042-4.398-1.714-5.34 1.11l.01-.028-5.755 16.3c-.122.346-.67.785-1.034.83l.206 1.693-.068-1.705-9.942.39zm-.66 3.71l.02.006 1.156-3.21-.01-.004-.584 1.603-.582 1.604v.002zm1.166-3.208L53.88 56.66l.02.01.577-1.606.578-1.606c-.004 0-.004 0-.008-.003zm38.878 30.22c-.724.226-1.306.7-1.67 1.366l-3.203 5.85 1.5.82.077-1.704c-1.31-.06-2.684.005-4.124.193l.222 1.69 1.41-.96c-.397-.584-.958-1.462-1.68-2.632-.748-1.215-1.3-2.08-1.668-2.617-.37-.55-.882-.965-1.504-1.19-.68-.248-1.375-.277-2.032-.02l.62 1.59-.45-1.648c-1.6.435-4.27 1.633-8.124 3.623l-.037.02-.038.02c-.653.38-1.14.926-1.392 1.615-.27.747-.264 1.52.065 2.228l1.547-.72-1.632.5 1.873 6.126 1.633-.5-1.16-1.25c-.88.816-1.728 1.746-2.545 2.79l1.344 1.052.337-1.673-6.574-1.32-.336 1.674.46-1.644c-.758-.212-1.53-.1-2.208.305-.618.37-1.067.924-1.315 1.605l-2.736 7.516c-.504 1.387-.07 2.733 1.154 3.56 1.092.753 3.124 1.873 6.128 3.385l.767-1.525-1.706-.067c-.05 1.283.01 2.564.18 3.843l1.69-.225-.91-1.442-5.322 3.353c-.64.407-1.11.947-1.353 1.62-.41 1.127.05 2.63 1.307 5.374 1.055 2.303 1.9 3.925 2.565 4.907l.02.03c.402.57.878.987 1.477 1.205.675.246 1.392.214 2.097-.04 2.336-.832 4.29-1.46 5.856-1.88l-.444-1.65-1.28 1.132c.907 1.026 1.87 1.923 2.89 2.688l1.023-1.365-1.673-.34-1.344 6.644-.005.026-.004.026c-.122.723.058 1.427.474 2.044.377.56.89.978 1.51 1.204l7.518 2.736c.647.235 1.33.25 1.987.044.723-.225 1.306-.7 1.67-1.366l3.175-5.872-1.502-.812-.12 1.703c1.348.095 2.757.034 4.226-.183l-.248-1.688-1.41.96c.396.583.955 1.458 1.68 2.633.753 1.22 1.3 2.08 1.668 2.615.37.55.882.965 1.503 1.192.617.224 1.263.26 1.89.09l.024-.006c1.69-.477 4.348-1.69 8.056-3.65l-.798-1.507.72 1.547c.74-.343 1.29-.92 1.564-1.673.263-.724.266-1.477-.017-2.18l-1.582.64 1.63-.506-1.885-6.09-1.63.503 1.16 1.25c.88-.815 1.727-1.745 2.545-2.788l-1.343-1.053-.336 1.674 6.574 1.32.336-1.673-.457 1.645c.757.21 1.53.1 2.205-.306.617-.37 1.067-.924 1.315-1.605l2.736-7.517c.505-1.39.07-2.734-1.153-3.562-1.093-.753-3.124-1.872-6.13-3.384l-.766 1.524 1.706.07c.052-1.283-.008-2.565-.18-3.845l-1.69.227.902 1.448 5.358-3.342.068-.042.063-.047c.56-.427.974-.936 1.196-1.544.41-1.128-.05-2.628-1.298-5.353-1.045-2.284-1.894-3.915-2.573-4.924l-1.415.952 1.507-.8c-.348-.655-.897-1.14-1.59-1.392-.69-.25-1.424-.228-2.136.03-2.525.884-4.484 1.512-5.85 1.88l.44 1.647 1.277-1.133c-.736-.83-1.667-1.704-2.793-2.628l-1.084 1.318 1.673.337 1.33-6.61.006-.025c.137-.742-.033-1.473-.46-2.104-.377-.56-.89-.976-1.51-1.202l-7.516-2.736c-.644-.236-1.327-.25-1.986-.044l-.004-.002zm1.018 3.258c-.053.017-.14.015-.2-.007l7.518 2.736c-.08-.027-.138-.074-.15-.093-.06-.09-.1-.26-.07-.428l1.678.31-1.673-.337-1.332 6.61-.203 1.004.793.65c.997.82 1.8 1.574 2.408 2.258l.7.787 1.02-.27c1.463-.394 3.495-1.046 6.112-1.962.01-.003-.074 0-.176-.037-.107-.038-.212-.13-.256-.214l.04.077.05.074c.55.82 1.328 2.31 2.302 4.44.478 1.043.808 1.87.99 2.463.078.25.123.445.14.567.002.025.002.03.003.016.003-.074.02-.167.06-.28.02-.05.038-.083.05-.098-.015.018-.048.05-.104.092l1.034 1.358-.903-1.448-5.357 3.342-.934.58.145 1.092c.144 1.086.195 2.17.152 3.256l-.045 1.1.984.493c2.87 1.446 4.8 2.51 5.74 3.155 0 0-.06-.07-.1-.2-.04-.126-.036-.216-.033-.224l-2.734 7.518c.016-.048.073-.12.136-.156.118-.07.31-.098.464-.056l-.06-.016-.06-.013-6.576-1.32-1.03-.205-.648.828c-.71.906-1.438 1.704-2.18 2.394l-.787.73.316 1.025 1.886 6.093.02.068.027.066c-.023-.056-.035-.12-.035-.18 0-.046.007-.076.01-.086.045-.123.142-.225.203-.253l-.04.02-.037.02c-3.506 1.854-5.997 2.99-7.39 3.382l.467 1.642-.44-1.648c.06-.017.13-.013.16-.002.08.03.138.077.15.095-.336-.49-.86-1.31-1.586-2.49-.75-1.214-1.33-2.13-1.763-2.76l-.6-.884-1.06.156c-1.23.18-2.39.232-3.486.154l-1.097-.078-.524.97-3.17 5.863c.065-.12.193-.224.31-.26.05-.017.14-.015.198.007l-7.517-2.736c.08.03.14.078.154.098.01.018.03.06.047.123.026.098.03.207.01.313l-1.68-.288 1.673.34 1.343-6.644.214-1.055-.86-.647c-.83-.623-1.625-1.363-2.382-2.22l-.7-.792-1.022.274c-1.663.447-3.7 1.1-6.12 1.963-.03.01-.028.01-.004.01.063-.004.142.007.222.037.1.035.167.078.208.114-.005-.004-.03-.03-.066-.084l-1.393.986 1.413-.958c-.532-.785-1.305-2.27-2.286-4.412-.48-1.05-.815-1.882-1-2.48-.077-.254-.123-.45-.14-.573-.002-.026-.002-.033-.003-.018-.003.074-.02.168-.062.283-.02.054-.046.098-.07.127-.004.004.008-.006.04-.027l5.32-3.35.925-.584-.144-1.085c-.145-1.086-.195-2.17-.152-3.257l.044-1.1-.98-.494c-2.872-1.445-4.802-2.51-5.74-3.155-.002-.002.057.07.1.2.04.126.034.215.03.225l2.737-7.517c-.016.047-.074.118-.134.154-.12.072-.313.1-.47.056l.063.017.063.013 6.575 1.32 1.03.206.65-.828c.71-.907 1.437-1.704 2.18-2.395l.784-.727-.313-1.022L75.08 90.7l-.035-.113-.05-.107c.04.08.06.175.06.264 0 .06-.006.1-.012.114-.036.103-.092.166-.1.17l-.856-1.476.783 1.517c3.644-1.884 6.162-3.01 7.455-3.364l.087-.023.082-.033c-.18.072-.323.066-.37.048-.08-.028-.14-.077-.15-.096.336.493.863 1.32 1.584 2.49.746 1.21 1.33 2.125 1.764 2.76l.59.868 1.042-.136c1.246-.164 2.42-.22 3.523-.168l1.063.05.512-.936 3.203-5.85c-.062.11-.19.215-.306.252h-.005zm1.424 22.56c.885 1.898.968 3.78.252 5.748-.716 1.967-1.99 3.355-3.888 4.24-1.9.886-3.78.97-5.748.253-1.968-.716-3.356-1.99-4.24-3.888-.887-1.9-.97-3.78-.253-5.748.714-1.967 1.987-3.356 3.886-4.24 1.9-.887 3.78-.97 5.748-.253 1.967.716 3.355 1.99 4.24 3.888h.002zm3.093-1.443c-1.27-2.72-3.35-4.63-6.17-5.654-2.817-1.026-5.637-.903-8.357.365-2.72 1.27-4.627 3.35-5.652 6.17-1.025 2.817-.902 5.637.366 8.357 1.268 2.72 3.35 4.626 6.168 5.652 2.818 1.025 5.638.902 8.357-.366 2.72-1.27 4.628-3.35 5.654-6.168 1.026-2.818.903-5.64-.366-8.358zM223.675-45.638l9.942-.39.07-.004.07-.008c1.652-.202 3.286-1.513 3.84-3.082l5.755-16.3.01-.028c.066-.197.122-.305.14-.326-.086.1-.26.2-.48.23-.183.025-.31-.005-.368-.036.063.034.178.128.323.282.828.88 1.862 2.837 2.75 5.297 2.104 5.813 2.8 12.32 1.412 16.132-3.168 8.697-10.96 14.675-19.894 15.55l-1.11.11-.346 1.06c-.008.03-.008.03-.057.177l-.17.523-.66 2.008c-.713 2.176-1.523 4.643-2.415 7.35-2.548 7.735-5.234 15.853-7.936 23.965-1.64 4.922-3.237 9.697-4.777 14.276-9.158 27.24-15.4 44.96-16.774 47.254-2.702 4.513-6.576 5.28-12.64 3.074v-.002c-6.063-2.207-8.537-5.285-7.707-10.48.422-2.642 7.03-20.228 17.525-46.982 1.765-4.498 3.61-9.182 5.518-14.006 3.144-7.95 6.304-15.897 9.325-23.46 1.058-2.647 2.02-5.057 2.874-7.183.3-.744.56-1.4.786-1.96l.204-.51.07-.175.416-1.034-.78-.797c-6.28-6.413-8.407-16-5.24-24.7 1.387-3.813 6.1-8.35 11.45-11.45 2.262-1.314 4.31-2.148 5.512-2.29.21-.025.358-.023.428-.01-.063-.012-.18-.07-.305-.207-.15-.164-.218-.354-.22-.486 0 .028-.026.146-.102.34l-.01.028-6.07 16.186c-.583 1.56-.174 3.614.962 4.83l.048.05.05.048 7.367 6.69.517.47.698-.028v.002zm-.134-3.41l1.216.44-7.366-6.69-1.148 1.264 1.247-1.165c-.253-.267-.39-.955-.26-1.3l6.067-16.184-.01.028c1.094-2.77-.59-4.61-3.377-4.282-1.755.208-4.193 1.2-6.823 2.727-5.975 3.464-11.23 8.52-12.945 13.235-3.618 9.94-1.185 20.91 6.01 28.257l-.365-1.83-.07.174-.205.51c-.226.562-.49 1.218-.787 1.963-.853 2.126-1.817 4.54-2.875 7.186-3.022 7.567-6.184 15.516-9.33 23.47-1.908 4.828-3.755 9.515-5.52 14.016-10.798 27.526-17.234 44.65-17.72 47.69-1.125 7.05 2.463 11.514 9.91 14.225h.002c7.448 2.712 13.067 1.6 16.737-4.526 1.58-2.64 7.657-19.895 17.08-47.922 1.54-4.583 3.14-9.36 4.78-14.285 2.703-8.116 5.39-16.237 7.94-23.976.89-2.71 1.702-5.176 2.416-7.354l.66-2.01.17-.522.06-.18-1.457 1.17c10.232-1.003 19.15-7.843 22.765-17.783 1.717-4.715.942-11.965-1.408-18.46-1.034-2.86-2.264-5.187-3.475-6.475-1.923-2.042-4.398-1.714-5.34 1.11l.01-.028-5.755 16.3c-.122.346-.67.785-1.034.83l.206 1.693-.068-1.705-9.942.39zm-.66 3.71l.02.006 1.156-3.21-.01-.004-.584 1.603-.582 1.604v.002zm1.166-3.208l-1.167 3.207.02.01.577-1.606.578-1.606c-.004 0-.004 0-.008-.003zm38.878 30.22c-.724.226-1.306.7-1.67 1.366l-3.203 5.85 1.5.82.077-1.704c-1.31-.06-2.684.005-4.124.193l.222 1.69 1.41-.96c-.397-.584-.958-1.462-1.68-2.632-.748-1.215-1.3-2.08-1.668-2.617-.37-.55-.882-.965-1.504-1.19-.68-.248-1.375-.277-2.032-.02l.62 1.59-.45-1.648c-1.6.435-4.27 1.633-8.124 3.623l-.037.02-.038.02c-.653.38-1.14.926-1.392 1.615-.27.747-.264 1.52.065 2.228l1.547-.72-1.632.5 1.873 6.126 1.633-.5-1.16-1.25c-.88.816-1.728 1.746-2.545 2.79l1.344 1.052.337-1.673-6.574-1.32-.336 1.674.46-1.644c-.758-.212-1.53-.1-2.208.305-.618.37-1.067.924-1.315 1.605L229.58 4.38c-.504 1.387-.07 2.733 1.154 3.56 1.092.753 3.124 1.873 6.128 3.385l.767-1.525-1.706-.067c-.05 1.283.01 2.564.18 3.843l1.69-.225-.91-1.442-5.322 3.353c-.64.407-1.11.947-1.353 1.62-.41 1.127.05 2.63 1.307 5.374 1.055 2.303 1.9 3.925 2.565 4.907l.02.03c.402.57.878.987 1.477 1.205.675.246 1.392.214 2.097-.04 2.336-.832 4.29-1.46 5.856-1.88l-.444-1.65-1.28 1.132c.907 1.026 1.87 1.923 2.89 2.688l1.023-1.365-1.673-.34-1.344 6.644-.005.026-.004.026c-.122.723.058 1.427.474 2.044.377.56.89.978 1.51 1.204l7.518 2.736c.647.235 1.33.25 1.987.044.723-.225 1.306-.7 1.67-1.366l3.175-5.872-1.502-.812-.12 1.703c1.348.095 2.757.034 4.226-.183l-.248-1.688-1.41.96c.396.583.955 1.458 1.68 2.633.753 1.22 1.3 2.08 1.668 2.615.37.55.882.965 1.503 1.192.617.224 1.263.26 1.89.09l.024-.006c1.69-.477 4.348-1.69 8.056-3.65l-.798-1.507.72 1.547c.74-.343 1.29-.92 1.564-1.673.263-.724.266-1.477-.017-2.18l-1.582.64 1.63-.506-1.885-6.09-1.63.503 1.16 1.25c.88-.815 1.727-1.745 2.545-2.788l-1.343-1.053-.336 1.674 6.574 1.32.336-1.673-.457 1.645c.757.21 1.53.1 2.205-.306.617-.37 1.067-.924 1.315-1.605l2.736-7.517c.505-1.39.07-2.734-1.153-3.562-1.093-.753-3.124-1.872-6.13-3.384l-.766 1.524 1.706.07c.052-1.283-.008-2.565-.18-3.845l-1.69.227.902 1.448 5.358-3.342.068-.042.063-.047c.56-.427.974-.936 1.196-1.544.41-1.128-.05-2.628-1.298-5.353-1.045-2.284-1.894-3.915-2.573-4.924l-1.415.952 1.507-.8c-.348-.655-.897-1.14-1.59-1.392-.69-.25-1.424-.228-2.136.03-2.525.884-4.484 1.512-5.85 1.88l.44 1.647 1.277-1.133c-.736-.83-1.667-1.704-2.793-2.628L271.39-5.94l1.673.337 1.33-6.61.006-.025c.137-.742-.033-1.473-.46-2.104-.377-.56-.89-.976-1.51-1.202l-7.516-2.736c-.644-.236-1.327-.25-1.986-.044l-.004-.002zm1.018 3.258c-.053.017-.14.015-.2-.007l7.518 2.736c-.08-.027-.138-.074-.15-.093-.06-.09-.1-.26-.07-.428l1.678.31-1.673-.337-1.332 6.61-.203 1.004.793.65c.997.82 1.8 1.574 2.408 2.258l.7.787 1.02-.27c1.463-.394 3.495-1.046 6.112-1.962.01-.003-.074 0-.176-.037-.107-.038-.212-.13-.256-.214l.04.077.05.074c.55.82 1.328 2.31 2.302 4.44.478 1.043.808 1.87.99 2.463.078.25.123.445.14.567.002.025.002.03.003.016.003-.074.02-.167.06-.28.02-.05.038-.083.05-.098-.015.018-.048.05-.104.092l1.034 1.358-.903-1.448-5.357 3.342-.934.58.145 1.092c.144 1.086.195 2.17.152 3.256l-.045 1.1.984.493c2.87 1.446 4.8 2.51 5.74 3.155 0 0-.06-.07-.1-.2-.04-.126-.036-.216-.033-.224l-2.734 7.518c.016-.048.073-.12.136-.156.118-.07.31-.098.464-.056l-.06-.016-.06-.013-6.576-1.32-1.03-.205-.648.828c-.71.906-1.438 1.704-2.18 2.394l-.787.73.316 1.025 1.886 6.093.02.068.027.066c-.023-.056-.035-.12-.035-.18 0-.046.007-.076.01-.086.045-.123.142-.225.203-.253l-.04.02-.037.02c-3.506 1.854-5.997 2.99-7.39 3.382l.467 1.642-.44-1.648c.06-.017.13-.013.16-.002.08.03.138.077.15.095-.336-.49-.86-1.31-1.586-2.49-.75-1.214-1.33-2.13-1.763-2.76l-.6-.884-1.06.156c-1.23.18-2.39.232-3.486.154l-1.097-.078-.524.97-3.17 5.863c.065-.12.193-.224.31-.26.05-.017.14-.015.198.007l-7.517-2.736c.08.03.14.078.154.098.01.018.03.06.047.123.026.098.03.207.01.313l-1.68-.288 1.673.34 1.343-6.644.214-1.055-.86-.647c-.83-.623-1.625-1.363-2.382-2.22l-.7-.792-1.022.274c-1.663.447-3.7 1.1-6.12 1.963-.03.01-.028.01-.004.01.063-.004.142.007.222.037.1.035.167.078.208.114-.005-.004-.03-.03-.066-.084l-1.393.986 1.413-.958c-.532-.785-1.305-2.27-2.286-4.412-.48-1.05-.815-1.882-1-2.48-.077-.254-.123-.45-.14-.573-.002-.026-.002-.033-.003-.018-.003.074-.02.168-.062.283-.02.054-.046.098-.07.127-.004.004.008-.006.04-.027l5.32-3.35.925-.584-.144-1.085c-.145-1.086-.195-2.17-.152-3.257l.044-1.1-.98-.494c-2.872-1.445-4.802-2.51-5.74-3.155-.002-.002.057.07.1.2.04.126.034.215.03.225l2.737-7.517c-.016.047-.074.118-.134.154-.12.072-.313.1-.47.056l.063.017.063.013 6.575 1.32 1.03.206.65-.828c.71-.907 1.437-1.704 2.18-2.395l.784-.727-.313-1.022-1.872-6.127-.035-.113-.05-.107c.04.08.06.175.06.264 0 .06-.006.1-.012.114-.036.103-.092.166-.1.17l-.856-1.476.783 1.517c3.644-1.884 6.162-3.01 7.455-3.364l.087-.023.082-.033c-.18.072-.323.066-.37.048-.08-.028-.14-.077-.15-.096.336.493.863 1.32 1.584 2.49.746 1.21 1.33 2.125 1.764 2.76l.59.868 1.042-.136c1.246-.164 2.42-.22 3.523-.168l1.063.05.512-.936 3.203-5.85c-.062.11-.19.215-.306.252h-.005zm1.424 22.56c.885 1.898.968 3.78.252 5.748-.716 1.967-1.99 3.355-3.888 4.24-1.9.886-3.78.97-5.748.253-1.968-.716-3.356-1.99-4.24-3.888-.887-1.9-.97-3.78-.253-5.748.714-1.967 1.987-3.356 3.886-4.24 1.9-.887 3.78-.97 5.748-.253 1.967.716 3.355 1.99 4.24 3.888h.002zm3.093-1.443c-1.27-2.72-3.35-4.63-6.17-5.654-2.817-1.026-5.637-.903-8.357.365-2.72 1.27-4.627 3.35-5.652 6.17-1.025 2.817-.902 5.637.366 8.357 1.268 2.72 3.35 4.626 6.168 5.652 2.818 1.025 5.638.902 8.357-.366 2.72-1.27 4.628-3.35 5.654-6.168 1.026-2.818.903-5.64-.366-8.358zM223.675 158.362l9.942-.39.07-.004.07-.008c1.652-.202 3.286-1.513 3.84-3.082l5.755-16.3.01-.028c.066-.197.122-.305.14-.326-.086.1-.26.2-.48.23-.183.025-.31-.005-.368-.036.063.034.178.128.323.282.828.88 1.862 2.837 2.75 5.297 2.104 5.813 2.8 12.32 1.412 16.132-3.168 8.697-10.96 14.675-19.894 15.55l-1.11.11-.346 1.06c-.008.03-.008.03-.057.177l-.17.523-.66 2.008c-.713 2.176-1.523 4.643-2.415 7.35-2.548 7.735-5.234 15.853-7.936 23.965-1.64 4.922-3.237 9.697-4.777 14.276-9.158 27.24-15.4 44.96-16.774 47.254-2.702 4.513-6.576 5.28-12.64 3.074v-.002c-6.063-2.207-8.537-5.285-7.707-10.48.422-2.642 7.03-20.228 17.525-46.982 1.765-4.498 3.61-9.182 5.518-14.006 3.144-7.95 6.304-15.897 9.325-23.46 1.058-2.647 2.02-5.057 2.874-7.183.3-.744.56-1.4.786-1.96l.204-.51.07-.175.416-1.034-.78-.797c-6.28-6.413-8.407-16-5.24-24.7 1.387-3.813 6.1-8.35 11.45-11.45 2.262-1.314 4.31-2.148 5.512-2.29.21-.025.358-.023.428-.01-.063-.012-.18-.07-.305-.207-.15-.164-.218-.354-.22-.486 0 .028-.026.146-.102.34l-.01.028-6.07 16.186c-.583 1.56-.174 3.614.962 4.83l.048.05.05.048 7.367 6.69.517.47.698-.028v.002zm-.134-3.41l1.216.44-7.366-6.69-1.148 1.264 1.247-1.165c-.253-.267-.39-.955-.26-1.3l6.067-16.184-.01.028c1.094-2.77-.59-4.61-3.377-4.282-1.755.208-4.193 1.2-6.823 2.727-5.975 3.464-11.23 8.52-12.945 13.235-3.618 9.94-1.185 20.91 6.01 28.257l-.365-1.83-.07.174-.205.51c-.226.562-.49 1.218-.787 1.963-.853 2.126-1.817 4.54-2.875 7.186-3.022 7.567-6.184 15.516-9.33 23.47-1.908 4.828-3.755 9.515-5.52 14.016-10.798 27.526-17.234 44.65-17.72 47.69-1.125 7.05 2.463 11.514 9.91 14.225h.002c7.448 2.712 13.067 1.6 16.737-4.526 1.58-2.64 7.657-19.895 17.08-47.922 1.54-4.583 3.14-9.36 4.78-14.285 2.703-8.116 5.39-16.237 7.94-23.976.89-2.71 1.702-5.176 2.416-7.354l.66-2.01.17-.522.06-.18-1.457 1.17c10.232-1.003 19.15-7.843 22.765-17.783 1.717-4.715.942-11.965-1.408-18.46-1.034-2.86-2.264-5.187-3.475-6.475-1.923-2.042-4.398-1.714-5.34 1.11l.01-.028-5.755 16.3c-.122.346-.67.785-1.034.83l.206 1.693-.068-1.705-9.942.39zm-.66 3.71l.02.006 1.156-3.21-.01-.004-.584 1.603-.582 1.604v.002zm1.166-3.208l-1.167 3.207.02.01.577-1.606.578-1.606c-.004 0-.004 0-.008-.003zm38.878 30.22c-.724.226-1.306.7-1.67 1.366l-3.203 5.85 1.5.82.077-1.704c-1.31-.06-2.684.005-4.124.193l.222 1.69 1.41-.96c-.397-.584-.958-1.462-1.68-2.632-.748-1.215-1.3-2.08-1.668-2.617-.37-.55-.882-.965-1.504-1.19-.68-.248-1.375-.277-2.032-.02l.62 1.59-.45-1.648c-1.6.435-4.27 1.633-8.124 3.623l-.037.02-.038.02c-.653.38-1.14.926-1.392 1.615-.27.747-.264 1.52.065 2.228l1.547-.72-1.632.5 1.873 6.126 1.633-.5-1.16-1.25c-.88.816-1.728 1.746-2.545 2.79l1.344 1.052.337-1.673-6.574-1.32-.336 1.674.46-1.644c-.758-.212-1.53-.1-2.208.305-.618.37-1.067.924-1.315 1.605l-2.736 7.516c-.504 1.387-.07 2.733 1.154 3.56 1.092.753 3.124 1.873 6.128 3.385l.767-1.525-1.706-.067c-.05 1.283.01 2.564.18 3.843l1.69-.225-.91-1.442-5.322 3.353c-.64.407-1.11.947-1.353 1.62-.41 1.127.05 2.63 1.307 5.374 1.055 2.303 1.9 3.925 2.565 4.907l.02.03c.402.57.878.987 1.477 1.205.675.246 1.392.214 2.097-.04 2.336-.832 4.29-1.46 5.856-1.88l-.444-1.65-1.28 1.132c.907 1.026 1.87 1.923 2.89 2.688l1.023-1.365-1.673-.34-1.344 6.644-.005.026-.004.026c-.122.723.058 1.427.474 2.044.377.56.89.978 1.51 1.204l7.518 2.736c.647.235 1.33.25 1.987.044.723-.225 1.306-.7 1.67-1.366l3.175-5.872-1.502-.812-.12 1.703c1.348.095 2.757.034 4.226-.183l-.248-1.688-1.41.96c.396.583.955 1.458 1.68 2.633.753 1.22 1.3 2.08 1.668 2.615.37.55.882.965 1.503 1.192.617.224 1.263.26 1.89.09l.024-.006c1.69-.477 4.348-1.69 8.056-3.65l-.798-1.507.72 1.547c.74-.343 1.29-.92 1.564-1.673.263-.724.266-1.477-.017-2.18l-1.582.64 1.63-.506-1.885-6.09-1.63.503 1.16 1.25c.88-.815 1.727-1.745 2.545-2.788l-1.343-1.053-.336 1.674 6.574 1.32.336-1.673-.457 1.645c.757.21 1.53.1 2.205-.306.617-.37 1.067-.924 1.315-1.605l2.736-7.517c.505-1.39.07-2.734-1.153-3.562-1.093-.753-3.124-1.872-6.13-3.384l-.766 1.524 1.706.07c.052-1.283-.008-2.565-.18-3.845l-1.69.227.902 1.448 5.358-3.342.068-.042.063-.047c.56-.427.974-.936 1.196-1.544.41-1.128-.05-2.628-1.298-5.353-1.045-2.284-1.894-3.915-2.573-4.924l-1.415.952 1.507-.8c-.348-.655-.897-1.14-1.59-1.392-.69-.25-1.424-.228-2.136.03-2.525.884-4.484 1.512-5.85 1.88l.44 1.647 1.277-1.133c-.736-.83-1.667-1.704-2.793-2.628l-1.084 1.318 1.673.337 1.33-6.61.006-.025c.137-.742-.033-1.473-.46-2.104-.377-.56-.89-.976-1.51-1.202l-7.516-2.736c-.644-.236-1.327-.25-1.986-.044l-.004-.002zm1.018 3.258c-.053.017-.14.015-.2-.007l7.518 2.736c-.08-.027-.138-.074-.15-.093-.06-.09-.1-.26-.07-.428l1.678.31-1.673-.337-1.332 6.61-.203 1.004.793.65c.997.82 1.8 1.574 2.408 2.258l.7.787 1.02-.27c1.463-.394 3.495-1.046 6.112-1.962.01-.003-.074 0-.176-.037-.107-.038-.212-.13-.256-.214l.04.077.05.074c.55.82 1.328 2.31 2.302 4.44.478 1.043.808 1.87.99 2.463.078.25.123.445.14.567.002.025.002.03.003.016.003-.074.02-.167.06-.28.02-.05.038-.083.05-.098-.015.018-.048.05-.104.092l1.034 1.358-.903-1.448-5.357 3.342-.934.58.145 1.092c.144 1.086.195 2.17.152 3.256l-.045 1.1.984.493c2.87 1.446 4.8 2.51 5.74 3.155 0 0-.06-.07-.1-.2-.04-.126-.036-.216-.033-.224l-2.734 7.518c.016-.048.073-.12.136-.156.118-.07.31-.098.464-.056l-.06-.016-.06-.013-6.576-1.32-1.03-.205-.648.828c-.71.906-1.438 1.704-2.18 2.394l-.787.73.316 1.025 1.886 6.093.02.068.027.066c-.023-.056-.035-.12-.035-.18 0-.046.007-.076.01-.086.045-.123.142-.225.203-.253l-.04.02-.037.02c-3.506 1.854-5.997 2.99-7.39 3.382l.467 1.642-.44-1.648c.06-.017.13-.013.16-.002.08.03.138.077.15.095-.336-.49-.86-1.31-1.586-2.49-.75-1.214-1.33-2.13-1.763-2.76l-.6-.884-1.06.156c-1.23.18-2.39.232-3.486.154l-1.097-.078-.524.97-3.17 5.863c.065-.12.193-.224.31-.26.05-.017.14-.015.198.007l-7.517-2.736c.08.03.14.078.154.098.01.018.03.06.047.123.026.098.03.207.01.313l-1.68-.288 1.673.34 1.343-6.644.214-1.055-.86-.647c-.83-.623-1.625-1.363-2.382-2.22l-.7-.792-1.022.274c-1.663.447-3.7 1.1-6.12 1.963-.03.01-.028.01-.004.01.063-.004.142.007.222.037.1.035.167.078.208.114-.005-.004-.03-.03-.066-.084l-1.393.986 1.413-.958c-.532-.785-1.305-2.27-2.286-4.412-.48-1.05-.815-1.882-1-2.48-.077-.254-.123-.45-.14-.573-.002-.026-.002-.033-.003-.018-.003.074-.02.168-.062.283-.02.054-.046.098-.07.127-.004.004.008-.006.04-.027l5.32-3.35.925-.584-.144-1.085c-.145-1.086-.195-2.17-.152-3.257l.044-1.1-.98-.494c-2.872-1.445-4.802-2.51-5.74-3.155-.002-.002.057.07.1.2.04.126.034.215.03.225l2.737-7.517c-.016.047-.074.118-.134.154-.12.072-.313.1-.47.056l.063.017.063.013 6.575 1.32 1.03.206.65-.828c.71-.907 1.437-1.704 2.18-2.395l.784-.727-.313-1.022-1.872-6.127-.035-.113-.05-.107c.04.08.06.175.06.264 0 .06-.006.1-.012.114-.036.103-.092.166-.1.17l-.856-1.476.783 1.517c3.644-1.884 6.162-3.01 7.455-3.364l.087-.023.082-.033c-.18.072-.323.066-.37.048-.08-.028-.14-.077-.15-.096.336.493.863 1.32 1.584 2.49.746 1.21 1.33 2.125 1.764 2.76l.59.868 1.042-.136c1.246-.164 2.42-.22 3.523-.168l1.063.05.512-.936 3.203-5.85c-.062.11-.19.215-.306.252h-.005zm1.424 22.56c.885 1.898.968 3.78.252 5.748-.716 1.967-1.99 3.355-3.888 4.24-1.9.886-3.78.97-5.748.253-1.968-.716-3.356-1.99-4.24-3.888-.887-1.9-.97-3.78-.253-5.748.714-1.967 1.987-3.356 3.886-4.24 1.9-.887 3.78-.97 5.748-.253 1.967.716 3.355 1.99 4.24 3.888h.002zm3.093-1.443c-1.27-2.72-3.35-4.63-6.17-5.654-2.817-1.026-5.637-.903-8.357.365-2.72 1.27-4.627 3.35-5.652 6.17-1.025 2.817-.902 5.637.366 8.357 1.268 2.72 3.35 4.626 6.168 5.652 2.818 1.025 5.638.902 8.357-.366 2.72-1.27 4.628-3.35 5.654-6.168 1.026-2.818.903-5.64-.366-8.358z"/></g></svg>