<svg width="290" height="186" viewBox="0 0 290 186" xmlns="http://www.w3.org/2000/svg"><g fill="#2C5773" fill-rule="evenodd"><g transform="rotate(-10 217.5 15.453)"><path d="M3.633 5.843v111.493c0 1.324 1.072 2.397 2.394 2.397h62.127c1.322 0 2.395-1.073 2.395-2.397V5.843c0-1.324-1.073-2.397-2.396-2.397H6.027c-1.322 0-2.394 1.073-2.394 2.397zm-2.765 0c0-2.85 2.31-5.16 5.16-5.16h62.126c2.85 0 5.16 2.31 5.16 5.16v111.493c0 2.85-2.31 5.162-5.16 5.162H6.027c-2.85 0-5.16-2.312-5.16-5.162V5.843z"/><path d="M2.657 15.66h70.25v-2.766H1.275v2.765M2.657 102.593h70.25V99.83H1.275v2.763M37.09 116.546c3.086 0 5.587-2.5 5.587-5.586 0-3.085-2.5-5.586-5.586-5.586-3.084 0-5.585 2.5-5.585 5.586 0 3.085 2.5 5.586 5.586 5.586zm0-2.765c-1.557 0-2.82-1.262-2.82-2.82 0-1.558 1.263-2.822 2.82-2.822 1.56 0 2.822 1.264 2.822 2.822s-1.263 2.82-2.82 2.82zM36.196 9.666h10.178V6.902H34.815v2.764"/><ellipse cx="29.936" cy="8.284" rx="2.236" ry="2.236"/><path d="M53.473 47.45c-1.984-1.938-4.69-2.894-8.044-2.894-.986 0-1.983.17-2.988.504-.98.327-1.895.77-2.742 1.326-.777.51-1.454.996-2.03 1.457-.577.462-1.126.953-1.646 1.473l.977.977.98-.977c-.522-.52-1.07-1.01-1.647-1.473-.574-.46-1.25-.944-2.03-1.457-.847-.557-1.762-1-2.742-1.326-1.004-.335-2.002-.504-2.987-.504-3.352 0-6.06.956-8.043 2.893-1.99 1.943-2.977 4.615-2.977 7.924 0 1.053.183 2.127.544 3.217.345 1.047.746 1.952 1.205 2.718.436.726.928 1.432 1.477 2.118.534.67.93 1.137 1.206 1.42.273.28.495.49.683.64l.862-1.08-.96.996 12.583 12.14.96-.996-.98.977c.504.503 1.152.768 1.866.768.715 0 1.363-.264 1.866-.766l-.977-.978.958.996 12.562-12.1.018-.017c3.316-3.316 5.022-6.668 5.022-10.05 0-3.31-.986-5.98-2.977-7.926zm-1.93 1.977c1.422 1.39 2.143 3.343 2.143 5.947 0 2.56-1.372 5.257-4.213 8.096l.02-.018-12.563 12.1-.018.016c.018-.018.075-.04.09-.04s.07.022.09.04l-.018-.017-12.582-12.137-.047-.045-.05-.04c-.08-.065-.228-.204-.426-.408-.198-.203-.55-.617-1.032-1.22-.472-.59-.894-1.196-1.265-1.814-.348-.58-.667-1.3-.952-2.163-.27-.818-.403-1.6-.403-2.35 0-2.603.72-4.556 2.144-5.946 1.432-1.397 3.442-2.107 6.113-2.107.68 0 1.384.12 2.114.363.753.25 1.452.588 2.097 1.013.712.468 1.32.904 1.822 1.306.497.397.97.82 1.418 1.27l.978.976.977-.977c.447-.447.92-.87 1.417-1.27.504-.402 1.112-.838 1.822-1.304.644-.425 1.342-.762 2.096-1.013.73-.243 1.432-.363 2.113-.363 2.67 0 4.68.71 6.11 2.107h.002z"/></g><g transform="rotate(-10 -241.497 -859.725)"><path d="M3.633 5.843v111.493c0 1.324 1.072 2.397 2.394 2.397h62.127c1.322 0 2.395-1.073 2.395-2.397V5.843c0-1.324-1.073-2.397-2.396-2.397H6.027c-1.322 0-2.394 1.073-2.394 2.397zm-2.765 0c0-2.85 2.31-5.16 5.16-5.16h62.126c2.85 0 5.16 2.31 5.16 5.16v111.493c0 2.85-2.31 5.162-5.16 5.162H6.027c-2.85 0-5.16-2.312-5.16-5.162V5.843z"/><path d="M2.657 15.66h70.25v-2.766H1.275v2.765M2.657 102.593h70.25V99.83H1.275v2.763M37.09 116.546c3.086 0 5.587-2.5 5.587-5.586 0-3.085-2.5-5.586-5.586-5.586-3.084 0-5.585 2.5-5.585 5.586 0 3.085 2.5 5.586 5.586 5.586zm0-2.765c-1.557 0-2.82-1.262-2.82-2.82 0-1.558 1.263-2.822 2.82-2.822 1.56 0 2.822 1.264 2.822 2.822s-1.263 2.82-2.82 2.82zM36.196 9.666h10.178V6.902H34.815v2.764"/><ellipse cx="29.936" cy="8.284" rx="2.236" ry="2.236"/><path d="M53.473 47.45c-1.984-1.938-4.69-2.894-8.044-2.894-.986 0-1.983.17-2.988.504-.98.327-1.895.77-2.742 1.326-.777.51-1.454.996-2.03 1.457-.577.462-1.126.953-1.646 1.473l.977.977.98-.977c-.522-.52-1.07-1.01-1.647-1.473-.574-.46-1.25-.944-2.03-1.457-.847-.557-1.762-1-2.742-1.326-1.004-.335-2.002-.504-2.987-.504-3.352 0-6.06.956-8.043 2.893-1.99 1.943-2.977 4.615-2.977 7.924 0 1.053.183 2.127.544 3.217.345 1.047.746 1.952 1.205 2.718.436.726.928 1.432 1.477 2.118.534.67.93 1.137 1.206 1.42.273.28.495.49.683.64l.862-1.08-.96.996 12.583 12.14.96-.996-.98.977c.504.503 1.152.768 1.866.768.715 0 1.363-.264 1.866-.766l-.977-.978.958.996 12.562-12.1.018-.017c3.316-3.316 5.022-6.668 5.022-10.05 0-3.31-.986-5.98-2.977-7.926zm-1.93 1.977c1.422 1.39 2.143 3.343 2.143 5.947 0 2.56-1.372 5.257-4.213 8.096l.02-.018-12.563 12.1-.018.016c.018-.018.075-.04.09-.04s.07.022.09.04l-.018-.017-12.582-12.137-.047-.045-.05-.04c-.08-.065-.228-.204-.426-.408-.198-.203-.55-.617-1.032-1.22-.472-.59-.894-1.196-1.265-1.814-.348-.58-.667-1.3-.952-2.163-.27-.818-.403-1.6-.403-2.35 0-2.603.72-4.556 2.144-5.946 1.432-1.397 3.442-2.107 6.113-2.107.68 0 1.384.12 2.114.363.753.25 1.452.588 2.097 1.013.712.468 1.32.904 1.822 1.306.497.397.97.82 1.418 1.27l.978.976.977-.977c.447-.447.92-.87 1.417-1.27.504-.402 1.112-.838 1.822-1.304.644-.425 1.342-.762 2.096-1.013.73-.243 1.432-.363 2.113-.363 2.67 0 4.68.71 6.11 2.107h.002z"/></g><g transform="rotate(-10 821.497 -766.725)"><path d="M3.633 5.843v111.493c0 1.324 1.072 2.397 2.394 2.397h62.127c1.322 0 2.395-1.073 2.395-2.397V5.843c0-1.324-1.073-2.397-2.396-2.397H6.027c-1.322 0-2.394 1.073-2.394 2.397zm-2.765 0c0-2.85 2.31-5.16 5.16-5.16h62.126c2.85 0 5.16 2.31 5.16 5.16v111.493c0 2.85-2.31 5.162-5.16 5.162H6.027c-2.85 0-5.16-2.312-5.16-5.162V5.843z"/><path d="M2.657 15.66h70.25v-2.766H1.275v2.765M2.657 102.593h70.25V99.83H1.275v2.763M37.09 116.546c3.086 0 5.587-2.5 5.587-5.586 0-3.085-2.5-5.586-5.586-5.586-3.084 0-5.585 2.5-5.585 5.586 0 3.085 2.5 5.586 5.586 5.586zm0-2.765c-1.557 0-2.82-1.262-2.82-2.82 0-1.558 1.263-2.822 2.82-2.822 1.56 0 2.822 1.264 2.822 2.822s-1.263 2.82-2.82 2.82zM36.196 9.666h10.178V6.902H34.815v2.764"/><ellipse cx="29.936" cy="8.284" rx="2.236" ry="2.236"/><path d="M53.473 47.45c-1.984-1.938-4.69-2.894-8.044-2.894-.986 0-1.983.17-2.988.504-.98.327-1.895.77-2.742 1.326-.777.51-1.454.996-2.03 1.457-.577.462-1.126.953-1.646 1.473l.977.977.98-.977c-.522-.52-1.07-1.01-1.647-1.473-.574-.46-1.25-.944-2.03-1.457-.847-.557-1.762-1-2.742-1.326-1.004-.335-2.002-.504-2.987-.504-3.352 0-6.06.956-8.043 2.893-1.99 1.943-2.977 4.615-2.977 7.924 0 1.053.183 2.127.544 3.217.345 1.047.746 1.952 1.205 2.718.436.726.928 1.432 1.477 2.118.534.67.93 1.137 1.206 1.42.273.28.495.49.683.64l.862-1.08-.96.996 12.583 12.14.96-.996-.98.977c.504.503 1.152.768 1.866.768.715 0 1.363-.264 1.866-.766l-.977-.978.958.996 12.562-12.1.018-.017c3.316-3.316 5.022-6.668 5.022-10.05 0-3.31-.986-5.98-2.977-7.926zm-1.93 1.977c1.422 1.39 2.143 3.343 2.143 5.947 0 2.56-1.372 5.257-4.213 8.096l.02-.018-12.563 12.1-.018.016c.018-.018.075-.04.09-.04s.07.022.09.04l-.018-.017-12.582-12.137-.047-.045-.05-.04c-.08-.065-.228-.204-.426-.408-.198-.203-.55-.617-1.032-1.22-.472-.59-.894-1.196-1.265-1.814-.348-.58-.667-1.3-.952-2.163-.27-.818-.403-1.6-.403-2.35 0-2.603.72-4.556 2.144-5.946 1.432-1.397 3.442-2.107 6.113-2.107.68 0 1.384.12 2.114.363.753.25 1.452.588 2.097 1.013.712.468 1.32.904 1.822 1.306.497.397.97.82 1.418 1.27l.978.976.977-.977c.447-.447.92-.87 1.417-1.27.504-.402 1.112-.838 1.822-1.304.644-.425 1.342-.762 2.096-1.013.73-.243 1.432-.363 2.113-.363 2.67 0 4.68.71 6.11 2.107h.002z"/></g></g></svg>