<svg width="316" height="150" viewBox="0 0 316 150" xmlns="http://www.w3.org/2000/svg"><g fill="none" fill-rule="evenodd"><g transform="rotate(-4 465.27 5.772)"><path d="M58.62 91.62c5.598.25 9.926.196 9.955-1.51.03-1.706-1.57-3.354-1.138-11.595.82-15.65 7.704-29.544 18.255-39.525 9.14-9.177 12.947-14.543 14.234-20.202C102.566 7.183 99.104 0 99.104 0L96.81 3.144S93.337.83 93.29.83c.306 1.34.434 2.748.36 4.19-.44 8.398-7.706 15.857-16 14.407-2.974-.52-6.316-2.378-6.316-2.378s-7.334-3.984-11.745-4.215c-11.942-.626-22.13 8.547-22.755 20.488-.018.338-.03 1.01-.03 1.01-1.788-.352-3.632-.552-5.52-.585C14.213 33.45.305 46.868.01 63.768-.22 76.965 3.743 88.422 8.258 90.8c.22.25 2.923 1.74 7.36.67 4.438-1.072 3.822-3.06 19.16-3.63 15.337-.57 18.243 3.532 23.842 3.782zM54.357 52.292s-18.215.547-17.69-19.093" stroke="#669" stroke-width="2"/><circle fill="#669" cx="68.683" cy="26.683" r="1.683"/></g><g transform="rotate(-4 -529.588 -2293.992)"><path d="M58.62 91.62c5.598.25 9.926.196 9.955-1.51.03-1.706-1.57-3.354-1.138-11.595.82-15.65 7.704-29.544 18.255-39.525 9.14-9.177 12.947-14.543 14.234-20.202C102.566 7.183 99.104 0 99.104 0L96.81 3.144S93.337.83 93.29.83c.306 1.34.434 2.748.36 4.19-.44 8.398-7.706 15.857-16 14.407-2.974-.52-6.316-2.378-6.316-2.378s-7.334-3.984-11.745-4.215c-11.942-.626-22.13 8.547-22.755 20.488-.018.338-.03 1.01-.03 1.01-1.788-.352-3.632-.552-5.52-.585C14.213 33.45.305 46.868.01 63.768-.22 76.965 3.743 88.422 8.258 90.8c.22.25 2.923 1.74 7.36.67 4.438-1.072 3.822-3.06 19.16-3.63 15.337-.57 18.243 3.532 23.842 3.782zM54.357 52.292s-18.215.547-17.69-19.093" stroke="#669" stroke-width="2"/><circle fill="#669" cx="68.683" cy="26.683" r="1.683"/></g><g transform="rotate(-4 1618.13 -2218.992)"><path d="M58.62 91.62c5.598.25 9.926.196 9.955-1.51.03-1.706-1.57-3.354-1.138-11.595.82-15.65 7.704-29.544 18.255-39.525 9.14-9.177 12.947-14.543 14.234-20.202C102.566 7.183 99.104 0 99.104 0L96.81 3.144S93.337.83 93.29.83c.306 1.34.434 2.748.36 4.19-.44 8.398-7.706 15.857-16 14.407-2.974-.52-6.316-2.378-6.316-2.378s-7.334-3.984-11.745-4.215c-11.942-.626-22.13 8.547-22.755 20.488-.018.338-.03 1.01-.03 1.01-1.788-.352-3.632-.552-5.52-.585C14.213 33.45.305 46.868.01 63.768-.22 76.965 3.743 88.422 8.258 90.8c.22.25 2.923 1.74 7.36.67 4.438-1.072 3.822-3.06 19.16-3.63 15.337-.57 18.243 3.532 23.842 3.782zM54.357 52.292s-18.215.547-17.69-19.093" stroke="#669" stroke-width="2"/><circle fill="#669" cx="68.683" cy="26.683" r="1.683"/></g></g></svg>