<svg width="342" height="150" viewBox="0 0 342 150" xmlns="http://www.w3.org/2000/svg"><g fill="#EB5745" fill-rule="evenodd"><path d="M67.165 34.927C91.397 39.2 101.33 47.67 101.33 47.67l14.638 14.086c1.147 1.103 1.057 2.79-.2 3.763l-60.275 46.744c-1.257.975-2.964.673-3.81-.672l-40.654-64.54c-.85-1.347-.356-2.96 1.1-3.606l18.57-8.228s12.232-4.564 36.465-.29zm-35.96 2.312l-.88.106.505.09c-.18.1-.34.2-.483.303L13.004 45.42c-.25.11-.29.247-.146.477l40.653 64.54c.168.265.41.308.66.116l60.274-46.745c.215-.165.222-.307.025-.497l-14.1-13.567-.05-.058.635.112-1.006-.51c-.208-.21-.443-.425-.708-.648-1.574-1.325-4.013-2.73-7.15-4.11-6.504-2.865-15.565-5.45-25.42-7.187-9.858-1.738-19.256-2.41-26.348-1.942-3.42.225-6.19.71-8.124 1.417-.37.136-.702.276-.995.42z"/><path d="M29.76 39.257l21.94 71.78c.722 2.367 2.983 2.766 4.47.79l45.168-59.95-1.726-1.3-45.167 59.95c-.426.565-.472.556-.68-.12L31.828 38.624l-2.067.632z"/><path d="M12.554 47.122c.036.04.1.11.196.208.154.16.338.346.552.556.604.594 1.326 1.263 2.165 1.993 2.388 2.076 5.242 4.233 8.56 6.36 9.468 6.068 20.77 10.698 33.88 13.01 16.837 2.97 35.438 1.864 55.772-4.185.57-.17.897-.77.727-1.344-.17-.57-.772-.896-1.344-.726-20.014 5.953-38.275 7.037-54.78 4.127-12.817-2.26-23.853-6.78-33.09-12.7-3.226-2.068-5.997-4.162-8.308-6.172-.805-.7-1.495-1.34-2.068-1.903-.2-.195-.368-.367-.51-.513-.047-.05-.088-.093-.12-.13l-.036-.037c-.4-.44-1.085-.472-1.526-.07-.44.402-.472 1.086-.07 1.527z"/><path d="M39.234 63.534l25.65-9.65-1.058-.17 20.97 16.893 1.356-1.683-20.97-16.894-.48-.388-.58.218-25.65 9.65"/><path d="M31.06 35.157c-1.42.348-2.348.928-2.682 1.87-.34.96.052 1.92.935 2.863 1.33 1.424 4.043 3.068 7.805 4.802 7.485 3.45 18.03 6.764 26.723 8.297 8.576 1.51 19.17 1.828 27.258.957 3.938-.424 6.97-1.102 8.72-1.998 2.393-1.228 2.69-3.254.438-4.87l-1.26 1.757c.3.214.493.404.588.552.027.04.04.07.043.084 0-.006-.002-.02 0-.035 0 0-.023.04-.104.12-.14.143-.373.302-.692.466-1.453.744-4.268 1.374-7.964 1.772-7.888.85-18.277.538-26.65-.938-8.51-1.5-18.876-4.757-26.193-8.13-3.524-1.625-6.044-3.152-7.132-4.316-.23-.248-.376-.458-.44-.614-.018-.046-.026-.076-.027-.09 0 .006 0 .022-.007.038-.004.01-.004.01.005 0 .03-.03.08-.072.154-.12.212-.13.546-.26 1-.372l-.514-2.1z"/><g><path d="M238.165-40.073C262.397-35.8 272.33-27.33 272.33-27.33l14.638 14.086c1.147 1.103 1.057 2.79-.2 3.763l-60.275 46.744c-1.257.975-2.964.673-3.81-.672l-40.654-64.54c-.85-1.347-.356-2.96 1.1-3.606l18.57-8.228s12.232-4.564 36.465-.29zm-35.96 2.312l-.88.106.505.09c-.18.1-.34.2-.483.303l-17.343 7.682c-.25.11-.29.247-.146.477l40.653 64.54c.168.265.41.308.66.116l60.274-46.745c.215-.165.222-.307.025-.497l-14.1-13.567-.05-.058.635.112-1.006-.51c-.208-.21-.443-.425-.708-.648-1.574-1.325-4.013-2.73-7.15-4.11-6.504-2.865-15.565-5.45-25.42-7.187-9.858-1.738-19.256-2.41-26.348-1.942-3.42.225-6.19.71-8.124 1.417-.37.136-.702.276-.995.42z"/><path d="M200.76-35.743l21.94 71.78c.722 2.367 2.983 2.766 4.47.79l45.168-59.95-1.726-1.3-45.167 59.95c-.426.565-.472.556-.68-.12l-21.938-71.782-2.067.632z"/><path d="M183.554-27.878c.036.04.1.11.196.208.154.16.338.346.552.556.604.594 1.326 1.263 2.165 1.993 2.388 2.076 5.242 4.233 8.56 6.36 9.468 6.068 20.77 10.698 33.88 13.01 16.837 2.97 35.438 1.864 55.772-4.185.57-.17.897-.77.727-1.344-.17-.57-.772-.896-1.344-.726-20.014 5.953-38.275 7.037-54.78 4.127-12.817-2.26-23.853-6.78-33.09-12.7-3.226-2.068-5.997-4.162-8.308-6.172-.805-.7-1.495-1.34-2.068-1.903-.2-.195-.368-.367-.51-.513-.047-.05-.088-.093-.12-.13l-.036-.037c-.4-.44-1.085-.472-1.526-.07-.44.402-.472 1.086-.07 1.527z"/><path d="M210.234-11.466l25.65-9.65-1.058-.17 20.97 16.893 1.356-1.683-20.97-16.894-.48-.388-.58.218-25.65 9.65"/><path d="M202.06-39.843c-1.42.348-2.348.928-2.682 1.87-.34.96.052 1.92.935 2.863 1.33 1.424 4.043 3.068 7.805 4.802 7.485 3.45 18.03 6.764 26.723 8.297 8.576 1.51 19.17 1.828 27.258.957 3.938-.424 6.97-1.102 8.72-1.998 2.393-1.228 2.69-3.254.438-4.87l-1.26 1.757c.3.214.493.404.588.552.027.04.04.07.043.084 0-.006-.002-.02 0-.035 0 0-.023.04-.104.12-.14.143-.373.302-.692.466-1.453.744-4.268 1.374-7.964 1.772-7.888.85-18.277.538-26.65-.938-8.51-1.5-18.876-4.757-26.193-8.13-3.524-1.625-6.044-3.152-7.132-4.316-.23-.248-.376-.458-.44-.614-.018-.046-.026-.076-.027-.09 0 .006 0 .022-.007.038-.004.01-.004.01.005 0 .03-.03.08-.072.154-.12.212-.13.546-.26 1-.372l-.514-2.1z"/></g><g><path d="M238.165 109.927c24.232 4.273 34.165 12.744 34.165 12.744l14.638 14.086c1.147 1.103 1.057 2.79-.2 3.763l-60.275 46.744c-1.257.975-2.964.673-3.81-.672l-40.654-64.54c-.85-1.347-.356-2.96 1.1-3.606l18.57-8.228s12.232-4.564 36.465-.29zm-35.96 2.312l-.88.106.505.09c-.18.1-.34.2-.483.303l-17.343 7.682c-.25.11-.29.247-.146.477l40.653 64.54c.168.265.41.308.66.116l60.274-46.745c.215-.165.222-.307.025-.497l-14.1-13.567-.05-.058.635.112-1.006-.51c-.208-.21-.443-.425-.708-.648-1.574-1.325-4.013-2.73-7.15-4.11-6.504-2.865-15.565-5.45-25.42-7.187-9.858-1.738-19.256-2.41-26.348-1.942-3.42.225-6.19.71-8.124 1.417-.37.136-.702.276-.995.42z"/><path d="M200.76 114.257l21.94 71.78c.722 2.367 2.983 2.766 4.47.79l45.168-59.95-1.726-1.3-45.167 59.95c-.426.565-.472.556-.68-.12l-21.938-71.782-2.067.632z"/><path d="M183.554 122.122c.036.04.1.11.196.208.154.16.338.346.552.556.604.594 1.326 1.263 2.165 1.993 2.388 2.076 5.242 4.233 8.56 6.36 9.468 6.068 20.77 10.698 33.88 13.01 16.837 2.97 35.438 1.864 55.772-4.185.57-.17.897-.77.727-1.344-.17-.57-.772-.896-1.344-.726-20.014 5.953-38.275 7.037-54.78 4.127-12.817-2.26-23.853-6.78-33.09-12.7-3.226-2.068-5.997-4.162-8.308-6.172-.805-.7-1.495-1.34-2.068-1.903-.2-.195-.368-.367-.51-.513-.047-.05-.088-.093-.12-.13l-.036-.037c-.4-.44-1.085-.472-1.526-.07-.44.402-.472 1.086-.07 1.527z"/><path d="M210.234 138.534l25.65-9.65-1.058-.17 20.97 16.893 1.356-1.683-20.97-16.894-.48-.388-.58.218-25.65 9.65"/><path d="M202.06 110.157c-1.42.348-2.348.928-2.682 1.87-.34.96.052 1.92.935 2.863 1.33 1.424 4.043 3.068 7.805 4.802 7.485 3.45 18.03 6.764 26.723 8.297 8.576 1.51 19.17 1.828 27.258.957 3.938-.424 6.97-1.102 8.72-1.998 2.393-1.228 2.69-3.254.438-4.87l-1.26 1.757c.3.214.493.404.588.552.027.04.04.07.043.084 0-.006-.002-.02 0-.035 0 0-.023.04-.104.12-.14.143-.373.302-.692.466-1.453.744-4.268 1.374-7.964 1.772-7.888.85-18.277.538-26.65-.938-8.51-1.5-18.876-4.757-26.193-8.13-3.524-1.625-6.044-3.152-7.132-4.316-.23-.248-.376-.458-.44-.614-.018-.046-.026-.076-.027-.09 0 .006 0 .022-.007.038-.004.01-.004.01.005 0 .03-.03.08-.072.154-.12.212-.13.546-.26 1-.372l-.514-2.1z"/></g></g></svg>