<svg width="350" height="202" viewBox="0 0 350 202" xmlns="http://www.w3.org/2000/svg"><g fill="#3A3A3A" fill-rule="evenodd"><path d="M14.64 103.53l33.528 31.31 1.368 1.278 1.346-1.3 14.433-13.94.224-.257c1.872-2.57 1.72-6.06-.39-8.464l-13.366-11.75 2.895 2.754-16.99-16.484c-.886-1.016-.854-2.667.186-3.745L76.07 46.03l1.464-1.414-1.46-1.418L58.697 26.33 57.327 25l-1.372 1.326L4.068 76.454c-4.79 4.626-4.798 12.163-.02 16.792l2.743-2.83c-3.177-3.08-3.17-8.048.017-11.127l50.52-48.92L72.08 44.615l-36.992 35.53c-2.518 2.61-2.594 6.584-.25 9.248l11.25 11.26 16.282 14.285c.71.835.772 2.28-.017 3.362l.224-.258-13.04 12.714-32.18-30.08-10.564-10.26-2.747 2.83L14.64 103.53z"/><path d="M110.33 97.824L76.802 66.51l-1.37-1.278-1.345 1.3-14.435 13.946-.222.255c-1.875 2.567-1.723 6.058.39 8.465l13.364 11.75-3.048-2.902 2.93 2.84 14.21 13.79c.89 1.017.857 2.665-.19 3.75l-38.187 36.9-1.465 1.414 1.46 1.417 17.377 16.87 1.37 1.33 1.373-1.328 41.263-39.878 10.622-10.25c4.788-4.628 4.797-12.166.02-16.795l-2.743 2.83c3.176 3.08 3.17 8.05-.015 11.128l-10.622 10.25-39.898 38.647L53.16 156.74l36.716-35.53c2.522-2.614 2.602-6.585.253-9.252l-14.32-13.9L62.6 86.416c-.712-.836-.774-2.28.013-3.358l-.222.255 13.043-12.735 32.178 30.1 10.565 10.258 2.746-2.828-10.59-10.284zM189.64 2.53l33.528 31.31 1.368 1.278 1.346-1.3 14.433-13.94.224-.257c1.872-2.57 1.72-6.06-.39-8.464L226.785-.594l2.895 2.754-16.99-16.484c-.886-1.016-.854-2.667.186-3.745L251.07-54.97l1.464-1.414-1.46-1.418-17.377-16.867-1.37-1.33-1.372 1.326-51.887 50.128c-4.79 4.626-4.798 12.163-.02 16.792l2.743-2.83c-3.177-3.08-3.17-8.048.017-11.127l50.52-48.92 14.752 14.244-36.992 35.53c-2.518 2.61-2.594 6.584-.25 9.248l11.25 11.26 16.282 14.285c.71.835.772 2.28-.017 3.362l.224-.258-13.04 12.714-32.18-30.08-10.564-10.26-2.747 2.83L189.64 2.53z"/><path d="M285.33-3.176L251.802-34.49l-1.37-1.278-1.345 1.3-14.435 13.946-.222.255c-1.875 2.567-1.723 6.058.39 8.465l13.364 11.75-3.048-2.902 2.93 2.84 14.21 13.79c.89 1.017.857 2.665-.19 3.75l-38.187 36.9-1.465 1.414 1.46 1.417 17.377 16.87 1.37 1.33 1.373-1.328 41.263-39.878 10.622-10.25c4.788-4.628 4.797-12.166.02-16.795l-2.743 2.83c3.176 3.08 3.17 8.05-.015 11.128l-10.622 10.25-39.898 38.647L228.16 55.74l36.716-35.53c2.522-2.614 2.602-6.585.253-9.252l-14.32-13.9-13.21-11.642c-.712-.836-.774-2.28.013-3.358l-.222.255 13.043-12.735 32.178 30.1 10.565 10.258 2.746-2.828-10.59-10.284z"/><g><path d="M189.64 204.53l33.528 31.31 1.368 1.278 1.346-1.3 14.433-13.94.224-.257c1.872-2.57 1.72-6.06-.39-8.464l-13.366-11.75 2.895 2.754-16.99-16.484c-.886-1.016-.854-2.667.186-3.745l38.195-36.902 1.464-1.414-1.46-1.418-17.377-16.867-1.37-1.33-1.372 1.326-51.887 50.128c-4.79 4.626-4.798 12.163-.02 16.792l2.743-2.83c-3.177-3.08-3.17-8.048.017-11.127l50.52-48.92 14.752 14.244-36.992 35.53c-2.518 2.61-2.594 6.584-.25 9.248l11.25 11.26 16.282 14.285c.71.835.772 2.28-.017 3.362l.224-.258-13.04 12.714-32.18-30.08-10.564-10.26-2.747 2.83 10.594 10.285z"/><path d="M285.33 198.824l-33.528-31.315-1.37-1.278-1.345 1.3-14.435 13.946-.222.255c-1.875 2.567-1.723 6.058.39 8.465l13.364 11.75-3.048-2.902 2.93 2.84 14.21 13.79c.89 1.017.857 2.665-.19 3.75l-38.187 36.9-1.465 1.414 1.46 1.417 17.377 16.87 1.37 1.33 1.373-1.328 41.263-39.878 10.622-10.25c4.788-4.628 4.797-12.166.02-16.795l-2.743 2.83c3.176 3.08 3.17 8.05-.015 11.128l-10.622 10.25-39.898 38.647-14.483-14.222 36.716-35.53c2.522-2.614 2.602-6.585.253-9.252l-14.32-13.9-13.21-11.642c-.712-.836-.774-2.28.013-3.358l-.222.255 13.043-12.735 32.178 30.1 10.565 10.258 2.746-2.828-10.59-10.284z"/></g></g></svg>