<svg width="406" height="174" viewBox="0 0 406 174" xmlns="http://www.w3.org/2000/svg"><g fill="#1C94C6" fill-rule="evenodd"><g transform="rotate(-7 352.726 20.598)"><path d="M2.986 9.246c0-3.457 2.804-6.26 6.263-6.26h122.125c3.458 0 6.263 2.804 6.263 6.26V95.72c0 3.456-2.804 6.26-6.263 6.26H9.25c-3.46 0-6.264-2.805-6.264-6.26V9.245zm-2.89 0V95.72c0 5.05 4.1 9.15 9.153 9.15h122.125c5.054 0 9.153-4.098 9.153-9.15V9.245c0-5.052-4.1-9.15-9.153-9.15H9.25C4.194.096.095 4.193.095 9.246z"/><path d="M32.106 33.55h94.24l-1.444-1.444v71.318l1.445-1.445h-94.24l1.444 1.444V32.106l-1.444 1.445zm0-2.89c-.798 0-1.445.648-1.445 1.446v71.318c0 .798.648 1.445 1.446 1.445h94.24c.8 0 1.446-.648 1.446-1.446V32.106c0-.798-.647-1.445-1.445-1.445h-94.24z"/><path d="M32.106 18.27h94.24l-1.444-1.446v15.282l1.445-1.445h-94.24l1.444 1.446V16.824l-1.444 1.445zm0-2.89c-.798 0-1.445.646-1.445 1.444v15.282c0 .798.648 1.445 1.446 1.445h94.24c.8 0 1.446-.646 1.446-1.444V16.824c0-.798-.647-1.445-1.445-1.445h-94.24z"/><ellipse cx="40.06" cy="24.194" rx="2.234" ry="2.234"/><ellipse cx="47.079" cy="24.194" rx="2.234" ry="2.234"/><ellipse cx="53.885" cy="24.194" rx="2.234" ry="2.234"/><path d="M42.294 47.73l2.89-2.89v25.472l-2.89-2.89h33.112l-2.89 2.89v-25.47l2.89 2.89H42.294zm0-2.89h33.112v25.472H42.294v-25.47zM83.098 82.16l2.89-2.89v25.47l-2.89-2.89h33.112l-2.89 2.89V79.27l2.89 2.89H83.098zm0-2.89h33.112v25.47H83.098V79.27zM83.047 47.757h26.916v-2.89H81.602v2.89M49.936 83.49H76.85V80.6H48.492v2.89M83.047 57.966h26.916v-2.89H81.602v2.89M49.936 93.698H76.85v-2.89H48.492v2.89"/></g><g transform="rotate(-7 -256.993 -1682.412)"><path d="M2.986 9.246c0-3.457 2.804-6.26 6.263-6.26h122.125c3.458 0 6.263 2.804 6.263 6.26V95.72c0 3.456-2.804 6.26-6.263 6.26H9.25c-3.46 0-6.264-2.805-6.264-6.26V9.245zm-2.89 0V95.72c0 5.05 4.1 9.15 9.153 9.15h122.125c5.054 0 9.153-4.098 9.153-9.15V9.245c0-5.052-4.1-9.15-9.153-9.15H9.25C4.194.096.095 4.193.095 9.246z"/><path d="M32.106 33.55h94.24l-1.444-1.444v71.318l1.445-1.445h-94.24l1.444 1.444V32.106l-1.444 1.445zm0-2.89c-.798 0-1.445.648-1.445 1.446v71.318c0 .798.648 1.445 1.446 1.445h94.24c.8 0 1.446-.648 1.446-1.446V32.106c0-.798-.647-1.445-1.445-1.445h-94.24z"/><path d="M32.106 18.27h94.24l-1.444-1.446v15.282l1.445-1.445h-94.24l1.444 1.446V16.824l-1.444 1.445zm0-2.89c-.798 0-1.445.646-1.445 1.444v15.282c0 .798.648 1.445 1.446 1.445h94.24c.8 0 1.446-.646 1.446-1.444V16.824c0-.798-.647-1.445-1.445-1.445h-94.24z"/><ellipse cx="40.06" cy="24.194" rx="2.234" ry="2.234"/><ellipse cx="47.079" cy="24.194" rx="2.234" ry="2.234"/><ellipse cx="53.885" cy="24.194" rx="2.234" ry="2.234"/><path d="M42.294 47.73l2.89-2.89v25.472l-2.89-2.89h33.112l-2.89 2.89v-25.47l2.89 2.89H42.294zm0-2.89h33.112v25.472H42.294v-25.47zM83.098 82.16l2.89-2.89v25.47l-2.89-2.89h33.112l-2.89 2.89V79.27l2.89 2.89H83.098zm0-2.89h33.112v25.47H83.098V79.27zM83.047 47.757h26.916v-2.89H81.602v2.89M49.936 83.49H76.85V80.6H48.492v2.89M83.047 57.966h26.916v-2.89H81.602v2.89M49.936 93.698H76.85v-2.89H48.492v2.89"/></g><g transform="rotate(-7 1165.444 -1595.412)"><path d="M2.986 9.246c0-3.457 2.804-6.26 6.263-6.26h122.125c3.458 0 6.263 2.804 6.263 6.26V95.72c0 3.456-2.804 6.26-6.263 6.26H9.25c-3.46 0-6.264-2.805-6.264-6.26V9.245zm-2.89 0V95.72c0 5.05 4.1 9.15 9.153 9.15h122.125c5.054 0 9.153-4.098 9.153-9.15V9.245c0-5.052-4.1-9.15-9.153-9.15H9.25C4.194.096.095 4.193.095 9.246z"/><path d="M32.106 33.55h94.24l-1.444-1.444v71.318l1.445-1.445h-94.24l1.444 1.444V32.106l-1.444 1.445zm0-2.89c-.798 0-1.445.648-1.445 1.446v71.318c0 .798.648 1.445 1.446 1.445h94.24c.8 0 1.446-.648 1.446-1.446V32.106c0-.798-.647-1.445-1.445-1.445h-94.24z"/><path d="M32.106 18.27h94.24l-1.444-1.446v15.282l1.445-1.445h-94.24l1.444 1.446V16.824l-1.444 1.445zm0-2.89c-.798 0-1.445.646-1.445 1.444v15.282c0 .798.648 1.445 1.446 1.445h94.24c.8 0 1.446-.646 1.446-1.444V16.824c0-.798-.647-1.445-1.445-1.445h-94.24z"/><ellipse cx="40.06" cy="24.194" rx="2.234" ry="2.234"/><ellipse cx="47.079" cy="24.194" rx="2.234" ry="2.234"/><ellipse cx="53.885" cy="24.194" rx="2.234" ry="2.234"/><path d="M42.294 47.73l2.89-2.89v25.472l-2.89-2.89h33.112l-2.89 2.89v-25.47l2.89 2.89H42.294zm0-2.89h33.112v25.472H42.294v-25.47zM83.098 82.16l2.89-2.89v25.47l-2.89-2.89h33.112l-2.89 2.89V79.27l2.89 2.89H83.098zm0-2.89h33.112v25.47H83.098V79.27zM83.047 47.757h26.916v-2.89H81.602v2.89M49.936 83.49H76.85V80.6H48.492v2.89M83.047 57.966h26.916v-2.89H81.602v2.89M49.936 93.698H76.85v-2.89H48.492v2.89"/></g></g></svg>