<svg width="384" height="216" viewBox="0 0 384 216" xmlns="http://www.w3.org/2000/svg"><g fill="#248AAF" fill-rule="evenodd"><path d="M111.845 77.39c.224-.04.388-.05.488-.045-.005 0-.064-.015-.164-.07-.356-.193-.54-.558-.538-.79 0 .098-.076.378-.248.774-.206.47-.52 1.044-.93 1.692-1.438 2.28-4.025 5.405-6.004 7.416l-.703.715.174.987 3.432 19.456.224 1.27 1.257.288c10.8 2.467 19.21 11.157 21.167 22.254.004.017.004.017.007.04l.004.022.008.04 1.916-.333-.338-1.915-58.51 10.317.337 1.914 1.914-.344-.018-.1c-1.974-11.19 3.06-22.32 12.5-28.293l1.1-.697-.225-1.284-3.373-19.128-.178-1.01-.936-.424c-2.543-1.15-6.23-3.262-8.467-4.968-.628-.48-1.14-.92-1.51-1.306-.31-.324-.487-.572-.525-.673.08.21.033.614-.232.913-.045.052-.088.09-.124.113-.01.007-.007.005.01-.003.1-.043.27-.09.505-.133l1.632-.288 4.303-.76 13.055-2.3 13.056-2.303 4.303-.76 1.632-.287zm-.675-3.83l-1.632.288-4.302.76-13.056 2.3-13.055 2.303-4.303.76-1.632.287c-1.138.2-2.018.585-2.63 1.276-.764.864-.89 1.975-.498 3.026.453 1.21 1.582 2.382 3.32 3.708 2.494 1.9 6.43 4.156 9.224 5.42l-1.114-1.435 3.373 19.128.875-1.98c-10.76 6.81-16.5 19.498-14.25 32.255l.02.113.342 1.907 1.91-.336 58.51-10.318 1.91-.337-.332-1.91-.007-.042-.005-.024-.008-.047c-2.23-12.65-11.82-22.557-24.13-25.37l1.482 1.558-3.43-19.456-.53 1.702c2.16-2.195 4.917-5.524 6.522-8.07 1.14-1.804 1.772-3.26 1.777-4.528.005-1.106-.49-2.093-1.49-2.638-.8-.436-1.744-.496-2.86-.3z"/><path d="M100.995 136.224l6.528 37.022c.186 1.058 1.195 1.764 2.252 1.577 1.058-.186 1.764-1.195 1.577-2.252l-6.528-37.022c-.186-1.057-1.195-1.763-2.252-1.577-1.058.188-1.764 1.196-1.577 2.254zM109.898 116.19l.037.01c.09.023.203.057.34.103.42.142.915.35 1.48.64 1.677.858 3.524 2.19 5.473 4.103.766.752 1.997.74 2.75-.026.752-.766.74-1.998-.026-2.75-2.23-2.188-4.398-3.75-6.427-4.79-.734-.375-1.404-.657-2.002-.86-.39-.132-.685-.21-.88-.248-1.055-.206-2.076.482-2.28 1.536-.207 1.054.48 2.075 1.535 2.28zM33.908 50.074l13.863 78.62c1.344 7.615-3.74 14.877-11.357 16.22-7.616 1.343-14.877-3.74-16.22-11.357L6.743 57.28C5.885 52.416 9.133 47.777 14 46.92l-.34-1.915-.336-1.915-.102.018.338 1.915.337 1.916c4.865-.858 9.505 2.39 10.362 7.253l13.723 77.83c.31 1.763-.866 3.444-2.628 3.754l-.568.1c-1.76.31-3.442-.867-3.753-2.628L19.858 69.864c-.186-1.057-1.195-1.763-2.252-1.577-1.058.187-1.764 1.195-1.577 2.253l11.174 63.38c.684 3.877 4.382 6.468 8.26 5.784l.567-.1c3.878-.684 6.467-4.38 5.783-8.26L28.09 53.515c-1.23-6.978-7.888-11.64-14.868-10.408l.675 3.83.102-.018-.676-3.83c-6.98 1.23-11.64 7.887-10.41 14.868l13.45 76.276c1.715 9.732 10.993 16.228 20.725 14.512 9.73-1.716 16.227-10.995 14.51-20.726L37.74 49.398c-.186-1.057-1.195-1.763-2.252-1.577-1.058.188-1.764 1.196-1.578 2.254z"/><g><path d="M303.845-30.61c.224-.04.388-.05.488-.045-.005 0-.064-.015-.164-.07-.356-.193-.54-.558-.538-.79 0 .098-.076.378-.248.774-.206.47-.52 1.044-.93 1.692-1.438 2.28-4.025 5.405-6.004 7.416l-.703.715.174.987 3.432 19.456.224 1.27 1.257.288c10.8 2.467 19.21 11.157 21.167 22.254.004.017.004.017.007.04l.004.022.008.04 1.916-.333-.338-1.915-58.51 10.317.337 1.914 1.914-.344-.018-.1c-1.974-11.19 3.06-22.32 12.5-28.293l1.1-.697-.225-1.284-3.373-19.128-.178-1.01-.936-.424c-2.543-1.15-6.23-3.262-8.467-4.968-.628-.48-1.14-.92-1.51-1.306-.31-.324-.487-.572-.525-.673.08.21.033.614-.232.913-.045.052-.088.09-.124.113-.01.007-.007.005.01-.003.1-.043.27-.09.505-.133l1.632-.288 4.303-.76 13.055-2.3 13.056-2.303 4.303-.76 1.632-.287zm-.675-3.83l-1.632.288-4.302.76-13.056 2.3-13.055 2.303-4.303.76-1.632.287c-1.138.2-2.018.585-2.63 1.276-.764.864-.89 1.975-.498 3.026.453 1.21 1.582 2.382 3.32 3.708 2.494 1.9 6.43 4.156 9.224 5.42l-1.114-1.435 3.373 19.128.875-1.98c-10.76 6.81-16.5 19.498-14.25 32.255l.02.113.342 1.907 1.91-.336 58.51-10.318 1.91-.337-.332-1.91-.007-.042-.005-.024-.008-.047C323.6 10.013 314.01.106 301.7-2.707l1.482 1.558-3.43-19.456-.53 1.702c2.16-2.195 4.917-5.524 6.522-8.07 1.14-1.804 1.772-3.26 1.777-4.528.005-1.106-.49-2.093-1.49-2.638-.8-.436-1.744-.496-2.86-.3z"/><path d="M292.995 28.224l6.528 37.022c.186 1.058 1.195 1.764 2.252 1.577 1.058-.186 1.764-1.195 1.577-2.252l-6.528-37.022c-.186-1.057-1.195-1.763-2.252-1.577-1.058.188-1.764 1.196-1.577 2.254zM301.898 8.19l.037.01c.09.023.203.057.34.103.42.142.915.35 1.48.64 1.677.858 3.524 2.19 5.473 4.103.766.752 1.997.74 2.75-.026.752-.766.74-1.998-.026-2.75-2.23-2.188-4.398-3.75-6.427-4.79-.734-.375-1.404-.657-2.002-.86-.39-.132-.685-.21-.88-.248-1.055-.206-2.076.482-2.28 1.536-.207 1.054.48 2.075 1.535 2.28zM225.908-57.926l13.863 78.62c1.344 7.615-3.74 14.877-11.357 16.22-7.616 1.343-14.877-3.74-16.22-11.357l-13.45-76.276c-.858-4.865 2.39-9.504 7.256-10.362l-.34-1.915-.336-1.915-.102.018.338 1.915.337 1.916c4.865-.858 9.505 2.39 10.362 7.253l13.723 77.83c.31 1.763-.866 3.444-2.628 3.754l-.568.1c-1.76.31-3.442-.867-3.753-2.628l-11.176-63.382c-.186-1.057-1.195-1.763-2.252-1.577-1.058.187-1.764 1.195-1.577 2.253l11.174 63.38c.684 3.877 4.382 6.468 8.26 5.784l.567-.1c3.878-.684 6.467-4.38 5.783-8.26l-13.724-77.83c-1.23-6.978-7.888-11.64-14.868-10.408l.675 3.83.102-.018-.676-3.83c-6.98 1.23-11.64 7.887-10.41 14.868l13.45 76.276c1.715 9.732 10.993 16.228 20.725 14.512 9.73-1.716 16.227-10.995 14.51-20.726l-13.862-78.62c-.186-1.057-1.195-1.763-2.252-1.577-1.058.188-1.764 1.196-1.578 2.254z"/></g><g><path d="M303.845 185.39c.224-.04.388-.05.488-.045-.005 0-.064-.015-.164-.07-.356-.193-.54-.558-.538-.79 0 .098-.076.378-.248.774-.206.47-.52 1.044-.93 1.692-1.438 2.28-4.025 5.405-6.004 7.416l-.703.715.174.987 3.432 19.456.224 1.27 1.257.288c10.8 2.467 19.21 11.157 21.167 22.254.004.017.004.017.007.04l.004.022.008.04 1.916-.333-.338-1.915-58.51 10.317.337 1.914 1.914-.344-.018-.1c-1.974-11.19 3.06-22.32 12.5-28.293l1.1-.697-.225-1.284-3.373-19.128-.178-1.01-.936-.424c-2.543-1.15-6.23-3.262-8.467-4.968-.628-.48-1.14-.92-1.51-1.306-.31-.324-.487-.572-.525-.673.08.21.033.614-.232.913-.045.052-.088.09-.124.113-.01.007-.007.005.01-.003.1-.043.27-.09.505-.133l1.632-.288 4.303-.76 13.055-2.3 13.056-2.303 4.303-.76 1.632-.287zm-.675-3.83l-1.632.288-4.302.76-13.056 2.3-13.055 2.303-4.303.76-1.632.287c-1.138.2-2.018.585-2.63 1.276-.764.864-.89 1.975-.498 3.026.453 1.21 1.582 2.382 3.32 3.708 2.494 1.9 6.43 4.156 9.224 5.42l-1.114-1.435 3.373 19.128.875-1.98c-10.76 6.81-16.5 19.498-14.25 32.255l.02.113.342 1.907 1.91-.336 58.51-10.318 1.91-.337-.332-1.91-.007-.042-.005-.024-.008-.047c-2.23-12.65-11.82-22.557-24.13-25.37l1.482 1.558-3.43-19.456-.53 1.702c2.16-2.195 4.917-5.524 6.522-8.07 1.14-1.804 1.772-3.26 1.777-4.528.005-1.106-.49-2.093-1.49-2.638-.8-.436-1.744-.496-2.86-.3z"/><path d="M292.995 244.224l6.528 37.022c.186 1.058 1.195 1.764 2.252 1.577 1.058-.186 1.764-1.195 1.577-2.252l-6.528-37.022c-.186-1.057-1.195-1.763-2.252-1.577-1.058.188-1.764 1.196-1.577 2.254zM301.898 224.19l.037.01c.09.023.203.057.34.103.42.142.915.35 1.48.64 1.677.858 3.524 2.19 5.473 4.103.766.752 1.997.74 2.75-.026.752-.766.74-1.998-.026-2.75-2.23-2.188-4.398-3.75-6.427-4.79-.734-.375-1.404-.657-2.002-.86-.39-.132-.685-.21-.88-.248-1.055-.206-2.076.482-2.28 1.536-.207 1.054.48 2.075 1.535 2.28zM225.908 158.074l13.863 78.62c1.344 7.615-3.74 14.877-11.357 16.22-7.616 1.343-14.877-3.74-16.22-11.357l-13.45-76.276c-.858-4.865 2.39-9.504 7.256-10.362l-.34-1.915-.336-1.915-.102.018.338 1.915.337 1.916c4.865-.858 9.505 2.39 10.362 7.253l13.723 77.83c.31 1.763-.866 3.444-2.628 3.754l-.568.1c-1.76.31-3.442-.867-3.753-2.628l-11.176-63.382c-.186-1.057-1.195-1.763-2.252-1.577-1.058.187-1.764 1.195-1.577 2.253l11.174 63.38c.684 3.877 4.382 6.468 8.26 5.784l.567-.1c3.878-.684 6.467-4.38 5.783-8.26l-13.724-77.83c-1.23-6.978-7.888-11.64-14.868-10.408l.675 3.83.102-.018-.676-3.83c-6.98 1.23-11.64 7.887-10.41 14.868l13.45 76.276c1.715 9.732 10.993 16.228 20.725 14.512 9.73-1.716 16.227-10.995 14.51-20.726l-13.862-78.62c-.186-1.057-1.195-1.763-2.252-1.577-1.058.188-1.764 1.196-1.578 2.254z"/></g></g></svg>